<svg width="24" height="15" viewBox="0 0 24 15" fill="none" xmlns="http://www.w3.org/2000/svg">
<path fill-rule="evenodd" clip-rule="evenodd" d="M1.49322 0.850962L1.79097 0.869756C1.98827 0.883002 2.18309 0.897693 2.3747 0.913906L2.93924 0.967186L3.48038 1.03005C4.88842 1.21087 6.00164 1.49879 6.45955 1.93265C6.5946 2.05915 6.66351 2.24159 6.64759 2.42733L6.62139 2.68236L10.0731 2.6833C11.3364 1.70839 12.3816 1.57269 13.8665 2.18481L14.6431 2.52334C15.0231 2.6864 15.4134 2.84737 15.8086 3.00482L16.4506 3.25655C16.4532 3.21048 16.461 3.16447 16.4742 3.11936C16.5229 2.95236 16.6411 2.81465 16.8 2.74009C16.8688 2.70833 16.947 2.67475 17.0352 2.63973L17.3299 2.53078C17.6012 2.43706 17.9379 2.33685 18.3483 2.23628C19.5493 1.94195 20.9502 1.76653 22.5417 1.76653C22.8442 1.76653 23.0949 1.98671 23.142 2.27604L23.15 2.37484V10.6248C23.15 10.9271 22.9293 11.178 22.6403 11.2252L22.5417 11.2332H19.7917C19.518 11.2332 19.2782 11.0507 19.2052 10.7867L19.142 10.5682L18.6648 10.8911C18.7276 11.3769 18.5687 11.8586 18.2119 12.221L18.1018 12.3236C17.8082 12.5756 17.4557 12.7191 17.0982 12.7366L17.047 12.7362L17.03 12.7777C16.9153 12.9987 16.7456 13.1937 16.5317 13.3506L16.3982 13.4401L16.2547 13.5199C15.9117 13.6922 15.5336 13.7631 15.18 13.726L15.116 13.7152L15.0839 13.7765C14.9261 14.0332 14.7099 14.2522 14.4569 14.4114L14.3009 14.4996L14.1371 14.5724C13.8089 14.7003 13.4639 14.7207 13.1438 14.6351L13.066 14.6092L13.0298 14.6387C12.8502 14.7585 12.6314 14.8368 12.3753 14.8741L12.1763 14.8945L12 14.8998C11.5335 14.8998 10.8971 14.6899 10.449 14.4378L10.2528 14.3166L9.88337 14.055L9.27548 13.6024L8.3303 12.8761L7.2952 12.0591L6.48589 11.4031L6.10937 11.0908L5.95253 10.9525L5.76779 10.777L5.54869 10.5587L4.81687 9.80287L4.78641 9.89666C4.71515 10.1158 4.5275 10.2729 4.30541 10.3088L4.20835 10.3165H1.45835C1.1561 10.3165 0.90514 10.0958 0.857972 9.80683L0.850006 9.70818V1.45818C0.850006 1.29037 0.919306 1.12978 1.04062 1.0158C1.1621 0.900355 1.3222 0.84255 1.49322 0.850962ZM8.76541 3.89915L6.42252 3.89894C6.38246 4.10045 6.33784 4.31111 6.28886 4.53044L6.13719 5.18057L6.05279 5.52255C5.98618 5.78804 5.9153 6.06065 5.8406 6.33928L5.61173 7.17059L5.3878 7.94925L5.22701 8.48316L5.34274 8.59591L6.43398 9.72228L6.72866 10.012L6.84097 10.1143L7.66057 10.7911L8.03691 11.094L8.80964 11.705L9.9003 12.5463L10.6106 13.0771L10.8948 13.28L10.9599 13.324C11.1786 13.4688 11.5688 13.6186 11.8425 13.667L11.7575 13.5855L11.3879 13.2166L10.9959 12.8153L10.1806 11.9563C9.9772 11.7378 9.9647 11.4098 10.1368 11.1784L10.2099 11.0965L10.296 11.029C10.5382 10.8724 10.8657 10.9071 11.0701 11.1256L11.2431 11.31L11.8349 11.9303L12.3899 12.4966L12.8424 12.9414L13.097 13.1801L13.3277 13.3842L13.3938 13.4326C13.4843 13.4833 13.5843 13.4799 13.6984 13.4366C13.849 13.3782 13.9784 13.2606 14.0589 13.1205L13.9299 13.0019L13.6487 12.7312L13.3304 12.4146L12.6599 11.7254L12.0106 11.0372C11.7832 10.7903 11.7997 10.4048 12.0474 10.1767C12.2957 9.95028 12.6789 9.96602 12.907 10.2135L13.0548 10.3735L13.5386 10.8865L14.0448 11.4083L14.3705 11.7351L14.6697 12.0266L14.9279 12.2675L15.1646 12.472C15.2389 12.541 15.4885 12.5432 15.7096 12.4313C15.8108 12.3807 15.8921 12.3158 15.9383 12.2395L15.9176 12.2217L15.4669 11.7864L15.033 11.3532L14.3545 10.6632L13.3951 9.67094C13.1882 9.45539 13.1715 9.12669 13.3411 8.89319L13.4135 8.8105L13.4986 8.74208C13.709 8.60208 13.9863 8.60799 14.1907 8.75651L14.2734 8.82889L14.8617 9.43872L15.7316 10.3282L16.2835 10.8817L16.7116 11.2978L16.9402 11.5065C17.0157 11.5457 17.1818 11.509 17.311 11.398C17.4604 11.2707 17.5162 11.1103 17.4097 10.8888C17.3341 10.7315 17.1972 10.5443 16.9966 10.3222L16.8685 10.1847L16.613 9.92885L16.4681 9.79104L16.1435 9.49494L15.7722 9.17052L15.1261 8.62813L13.6517 7.42975L12.9389 6.84002L12.6156 6.56134L12.315 6.29101L11.9222 6.46271C11.7696 6.52615 11.653 6.56389 11.5126 6.59292L11.418 6.60916L11.3322 6.72053C10.687 7.48495 9.86142 7.80213 8.9629 7.63075L8.78225 7.58995L8.59986 7.53605C8.13757 7.38368 7.82033 7.05062 7.71343 6.6022C7.52921 5.82305 8.03081 4.73855 8.76541 3.89915ZM21.6816 3.0024L21.933 2.99301V10.016H20.244L20.1963 9.86032L19.9883 9.2163L19.7503 8.50673L19.4903 7.75494L19.0771 6.59917L18.7978 5.84398L18.5251 5.1283L18.267 4.47547L18.0317 3.90884L17.907 3.62601L18.0092 3.59306C18.9865 3.2907 20.2167 3.06733 21.6816 3.0024ZM13.4172 3.3168C12.0521 2.74807 11.3532 3.01386 9.87127 4.49665C9.27839 5.08958 8.81749 5.98369 8.89834 6.3217C8.9037 6.34455 8.90773 6.35322 8.93983 6.36627L9.10188 6.4175C9.65266 6.56412 10.1097 6.40336 10.5774 5.70413C10.6582 5.58347 10.7787 5.49695 10.9164 5.45783L11.0225 5.43759L11.1963 5.41564L11.3232 5.38812L11.4407 5.34709L11.7402 5.21557L11.9877 5.11182L12.2518 5.01211C12.4417 4.9439 12.6518 4.97461 12.8122 5.08986L12.888 5.15447L13.0381 5.30124L13.2875 5.53225L13.586 5.79358L13.9555 6.10472L15.9893 7.76359L16.4456 8.14649L16.9481 8.58379L17.3786 8.97993L17.5313 9.12799L17.6734 9.27061L17.9261 9.54081C18.001 9.6248 18.0695 9.70601 18.1321 9.78482L18.757 9.36116L18.5553 8.76415L18.2572 7.91238L17.8518 6.79329L17.5838 6.07687L17.2413 5.19272L17.078 4.78716L16.7377 4.66475C15.965 4.37982 15.1553 4.06306 14.3654 3.72871L13.4172 3.3168ZM2.06601 9.09901V2.11301L2.18077 2.12231L2.72373 2.17649L3.24749 2.23981L3.74326 2.31091C3.98269 2.34818 4.20832 2.38787 4.4152 2.4292L4.80252 2.51386C5.04211 2.57147 5.24252 2.63112 5.39201 2.69101L5.37154 2.8523C5.26267 3.59786 5.05869 4.52524 4.79521 5.54442L4.58701 6.32462L4.24016 7.541L3.99078 8.37034L3.76301 9.09901H2.06601Z" fill="#123456"/>
</svg>
