<svg xmlns="http://www.w3.org/2000/svg" width="32" height="32" viewBox="0 0 32 32">
    <g fill="none" fill-rule="evenodd">
        <g>
            <g>
                <g>
                    <g>
                        <g>
                            <path d="M0 0L32 0 32 5.333 32 32 0 32z" transform="translate(-293 -164) translate(12 152) translate(258) translate(11) translate(12 12)"/>
                            <path fill="#FFF" d="M27.986 29.442L26.222 9.563c-.049-.543-.498-.958-1.037-.958h-3.639v-1.66c0-3.094-2.488-5.612-5.546-5.612-3.059 0-5.547 2.518-5.547 5.612v1.66h-3.64c-.54 0-.99.415-1.037.958L4.004 29.52c-.026.294.071.586.269.804.197.218.476.343.768.343h21.918c.575 0 1.041-.472 1.041-1.053 0-.059-.005-.116-.014-.172zM12.535 6.945c0-1.933 1.554-3.506 3.465-3.506 1.91 0 3.465 1.573 3.465 3.506v1.66h-6.93v-1.66zM6.179 28.56l1.585-17.85h2.69v1.882c0 .582.465 1.053 1.04 1.053s1.041-.471 1.041-1.053V10.71h6.93v1.883c0 .582.466 1.053 1.04 1.053.575 0 1.041-.471 1.041-1.053V10.71h2.687l1.585 17.851H6.179z" transform="translate(-293 -164) translate(12 152) translate(258) translate(11) translate(12 12)"/>
                        </g>
                    </g>
                </g>
            </g>
        </g>
    </g>
</svg>
