<svg xmlns="http://www.w3.org/2000/svg" xmlns:xlink="http://www.w3.org/1999/xlink" width="112" height="56" viewBox="0 0 112 56">
    <defs>
        <path id="jijfvnfwqa" d="M0 0L26.273 0 26.273 26.276 0 26.276z"/>
        <path id="tbrrwqzo5c" d="M0 0L26.068 0 26.068 36.404 0 36.404z"/>
    </defs>
    <g fill="none" fill-rule="evenodd">
        <g>
            <g>
                <g>
                    <path d="M0 0H112V56H0z" transform="translate(-536 -290) translate(512 266) translate(24 24)"/>
                    <g>
                        <path fill="#123456" d="M14.667 34.702c-1.068 1.685-3.304 2.189-4.993 1.12-1.69-1.068-2.198-3.304-1.13-4.993l5.652-8.946H3.546C1.583 21.84 0 20.236 0 18.262s1.582-3.58 3.547-3.617v-.005h10.649L8.503 5.638l.004-.004C7.49 3.954 8 1.76 9.67.7c1.671-1.055 3.869-.574 4.956 1.064h.005l9.212 14.565c.005.014.01.023.014.032.033.052.065.103.093.159.019.028.033.06.047.093.014.024.028.052.042.08.019.042.042.084.06.126.015.042.029.079.047.116.01.033.024.066.038.098l.037.108c.014.042.023.084.037.126.01.037.019.074.033.112.005.032.014.065.019.098l.028.126c.004.042.014.084.018.12l.014.104.014.13c.005.033.005.075.005.112.005.038.005.08.005.122 0 .023.004.046.004.07 0 .018-.004.037-.004.056v.093c-.005.047-.005.089-.01.135-.004.047-.004.094-.009.136-.005.028-.01.05-.01.074-.009.042-.013.084-.023.126l-.028.159c-.004.019-.014.037-.018.06-.005.038-.014.075-.028.113-.014.056-.028.112-.047.168-.01.023-.019.042-.023.06-.01.033-.019.06-.033.094-.023.056-.042.112-.065.172-.014.024-.028.047-.038.075-.009.023-.023.047-.037.07-.023.056-.047.107-.08.163-.018.028-.037.06-.055.094-.005.009-.01.014-.014.023h.004l-9.212 14.57z" transform="translate(-536 -290) translate(512 266) translate(24 24) translate(0 9.915)"/>
                        <path fill="#123456" d="M37.882 21.882H27.228l5.698 9.007h-.005c1.013 1.685.504 3.878-1.162 4.933-1.67 1.054-3.873.574-4.96-1.064v.004l-4.662-7.373 4.587-7.257h-.005c.005-.004.01-.014.014-.023l.056-.093c.028-.056.056-.108.08-.164.014-.023.023-.046.032-.07.014-.028.028-.05.038-.074.028-.06.046-.117.065-.173.014-.033.028-.06.037-.093.005-.019.014-.038.024-.06.018-.057.028-.113.046-.169.01-.037.02-.075.028-.112.005-.023.01-.037.014-.06.014-.052.024-.103.033-.16.005-.041.014-.083.019-.125.004-.024.004-.047.01-.075l.013-.135c0-.047.005-.089.01-.136v-.093c0-.019.004-.037.004-.056 0-.023-.005-.047-.005-.07 0-.042 0-.084-.004-.121 0-.038-.005-.075-.01-.112 0-.047-.004-.089-.009-.13-.005-.034-.01-.066-.014-.104-.01-.037-.014-.079-.019-.12l-.028-.127c-.004-.033-.014-.065-.023-.098-.01-.037-.019-.075-.033-.112-.009-.042-.023-.084-.032-.126l-.042-.107c-.01-.033-.024-.066-.038-.098l-.042-.112c-.018-.047-.042-.089-.06-.13-.014-.029-.028-.057-.042-.08-.019-.033-.033-.066-.047-.094-.028-.056-.06-.107-.093-.158l-.014-.028-4.555-7.196 4.63-7.313C27.83.135 30.064-.364 31.754.705c1.69 1.064 2.193 3.3 1.13 4.989l-5.657 8.946h10.654v.004c1.965.042 3.547 1.643 3.547 3.617s-1.582 3.58-3.547 3.621" transform="translate(-536 -290) translate(512 266) translate(24 24) translate(0 9.915)"/>
                        <g transform="translate(-536 -290) translate(512 266) translate(24 24) translate(0 9.915) translate(73.852 10.129)">
                            <mask id="2bw4ds9pcb" fill="#fff">
                                <use xlink:href="#jijfvnfwqa"/>
                            </mask>
                            <path fill="#123456" d="M13.137 18.41c-2.908 0-5.269-2.366-5.269-5.273 0-2.903 2.361-5.269 5.269-5.269 2.907 0 5.273 2.366 5.273 5.269 0 2.907-2.366 5.273-5.273 5.273M25.233 1.27c-.7-.78-1.648-1.167-2.847-1.167-1.19 0-2.128.387-2.814 1.166-.084.094-.159.192-.233.29C17.49.565 15.377 0 13.137 0 5.894 0 0 5.894 0 13.137c0 7.247 5.894 13.141 13.137 13.141 2.254 0 4.377-.574 6.23-1.577.07.098.144.186.219.28.69.793 1.629 1.19 2.8 1.19 1.213 0 2.17-.392 2.851-1.176.696-.784 1.036-1.76 1.036-2.936V4.167c0-1.157-.35-2.123-1.04-2.898" mask="url(#2bw4ds9pcb)"/>
                        </g>
                        <path fill="#123456" d="M115.728 10.102c-.038 0-.08.01-.117.01h-.084c-2.25 0-4.368.564-6.225 1.558-.08-.112-.164-.215-.257-.317-.705-.775-1.67-1.162-2.875-1.162-1.208 0-2.156.387-2.846 1.162-.696.774-1.04 1.74-1.04 2.893v17.869c0 1.143.354 2.114 1.054 2.912.695.793 1.642 1.19 2.832 1.19 1.223 0 2.19-.392 2.88-1.172.7-.788 1.05-1.76 1.05-2.93V23.06c.154-2.86 2.53-5.142 5.427-5.142h.121c.028 0 .056.009.08.009 2.16 0 3.915-1.75 3.915-3.915 0-2.161-1.755-3.911-3.915-3.911" transform="translate(-536 -290) translate(512 266) translate(24 24) translate(0 9.915)"/>
                        <g transform="translate(-536 -290) translate(512 266) translate(24 24) translate(0 9.915) translate(48.229)">
                            <mask id="2ei409i3ld" fill="#fff">
                                <use xlink:href="#tbrrwqzo5c"/>
                            </mask>
                            <path fill="#123456" d="M22.2 28.652h-.043v-.028c-2.272 0-4.218-1.4-5.03-3.374 0 0-.294.318-.397-7.392h5.227c1.148 0 2.123-.35 2.921-1.04.793-.69 1.19-1.624 1.19-2.8 0-1.214-.392-2.17-1.176-2.852-.784-.695-1.76-1.036-2.935-1.036h-5.222V4.152c0-1.185-.346-2.17-1.046-2.963C15.003.4 14.033 0 12.81 0c-1.185 0-2.128.406-2.828 1.209-.695.802-1.045 1.782-1.045 2.944v5.978H4.065c-1.158 0-2.124.346-2.903 1.041C.387 11.871 0 12.818 0 14.018c0 1.19.387 2.128 1.162 2.814.78.686 1.745 1.026 2.903 1.026h4.872v5.348h-.01c0 7.28 5.936 13.198 13.23 13.198v-.019h.042c2.133 0 3.869-1.736 3.869-3.869 0-2.128-1.736-3.864-3.869-3.864" mask="url(#2ei409i3ld)"/>
                        </g>
                    </g>
                </g>
            </g>
        </g>
    </g>
</svg>
