<svg width="1280" height="256" viewBox="0 0 1280 256" fill="none" xmlns="http://www.w3.org/2000/svg">
<g clip-path="url(#clip0)">
<rect width="1280" height="256" rx="8" fill="#B2F7E2"/>
<mask id="mask0" mask-type="alpha" maskUnits="userSpaceOnUse" x="1237" y="33" width="71" height="10">
<path fill-rule="evenodd" clip-rule="evenodd" d="M1237 33H1307.93V42.9508H1237V33Z" fill="white"/>
</mask>
<g mask="url(#mask0)">
<path fill-rule="evenodd" clip-rule="evenodd" d="M1237 37.9744C1237 40.7111 1239.23 42.9494 1241.97 42.9494H1302.97C1305.7 42.9494 1307.93 40.7111 1307.93 37.9744C1307.93 35.2349 1305.7 32.9966 1302.97 32.9966H1241.97C1239.23 32.9966 1237 35.2349 1237 37.9744Z" fill="#82EACD"/>
</g>
<path fill-rule="evenodd" clip-rule="evenodd" d="M1237 53.2543C1237 55.991 1239.23 58.2321 1241.97 58.2321H1302.97C1305.7 58.2321 1307.93 55.991 1307.93 53.2543C1307.93 50.5176 1305.7 48.2793 1302.97 48.2793H1241.97C1239.23 48.2793 1237 50.5176 1237 53.2543Z" fill="#82EACD"/>
<path fill-rule="evenodd" clip-rule="evenodd" d="M1237 68.536C1237 71.2727 1239.23 73.511 1241.97 73.511H1302.97C1305.7 73.511 1307.93 71.2727 1307.93 68.536C1307.93 65.7994 1305.7 63.561 1302.97 63.561H1241.97C1239.23 63.561 1237 65.7994 1237 68.536Z" fill="#82EACD"/>
<path fill-rule="evenodd" clip-rule="evenodd" d="M1237 83.8177C1237 86.5544 1239.23 88.7927 1241.97 88.7927H1302.97C1305.7 88.7927 1307.93 86.5544 1307.93 83.8177C1307.93 81.081 1305.7 78.8398 1302.97 78.8398H1241.97C1239.23 78.8398 1237 81.081 1237 83.8177Z" fill="#82EACD"/>
<path fill-rule="evenodd" clip-rule="evenodd" d="M16.7496 154.03C-2.41515 154.03 -18.0039 169.932 -18.0039 189.482C-18.0039 209.029 -2.41515 224.935 16.7496 224.935C35.9143 224.935 51.5065 209.029 51.5065 189.482C51.5065 169.932 35.9143 154.03 16.7496 154.03ZM16.7495 241.965C-11.7868 241.965 -35 218.423 -35 189.483C-35 160.545 -11.7868 137 16.7495 137C45.2859 137 68.5025 160.545 68.5025 189.483C68.5025 218.423 45.2859 241.965 16.7495 241.965Z" fill="#82EACD"/>
<g clip-path="url(#clip1)">
<path d="M734.07 97.4673H543.762V196.933H734.07V97.4673Z" fill="#EEE8D3"/>
<path d="M734.07 97.4673H543.762V196.933H734.07V97.4673Z" fill="#E2FCF6"/>
<path d="M652.661 109.2H558.828V179.122H652.661V109.2Z" fill="#3AB895"/>
<path d="M649.595 106.928H561.894V172.252H649.595V106.928Z" fill="#B2F7E2"/>
<path d="M607.727 106.188H603.762V176.322H607.727V106.188Z" fill="#3AB895"/>
<path d="M658.74 178.277C658.74 180.179 657.207 181.765 655.251 181.765H556.661C554.758 181.765 553.172 180.232 553.172 178.277C553.172 176.374 554.705 174.789 556.661 174.789H655.304C657.207 174.789 658.74 176.374 658.74 178.277Z" fill="#82EACD"/>
<path d="M743.163 213H535.515V197.568C535.515 193.604 538.74 190.38 542.705 190.38H736.026C739.991 190.38 743.216 193.604 743.216 197.568V213H743.163Z" fill="#59CFAE"/>
<path d="M719.269 117.022H674.599V206.922H719.269V117.022Z" fill="#3AB895"/>
<path d="M742.106 72.0987C742.106 65.968 737.137 61 731.004 61H548.097C541.965 61 536.996 65.968 536.996 72.0987V112.477H742.053V72.0987H742.106Z" fill="#23A37F"/>
<path d="M742.74 88.7998L766 112.477H514L537.048 88.7998H742.74Z" fill="#F9863A"/>
<g opacity="0.29">
<path opacity="0.29" d="M616.819 207.292C616.819 209.194 615.286 210.727 613.383 210.727H600.379C598.476 210.727 596.943 209.194 596.943 207.292V205.072C596.943 203.169 598.476 201.637 600.379 201.637H613.383C615.286 201.637 616.819 203.169 616.819 205.072V207.292Z" fill="#FAFAFA"/>
</g>
<g opacity="0.29">
<path opacity="0.29" d="M592.714 197.514C592.714 199.417 591.181 200.95 589.278 200.95H576.273C574.37 200.95 572.837 199.417 572.837 197.514V195.295C572.837 193.392 574.37 191.859 576.273 191.859H589.278C591.181 191.859 592.714 193.392 592.714 195.295V197.514Z" fill="#FAFAFA"/>
</g>
<g opacity="0.29">
<path opacity="0.29" d="M578.018 207.609C578.018 209.512 576.485 211.045 574.582 211.045H561.577C559.674 211.045 558.141 209.512 558.141 207.609V205.389C558.141 203.487 559.674 201.954 561.577 201.954H574.582C576.485 201.954 578.018 203.487 578.018 205.389V207.609Z" fill="#FAFAFA"/>
</g>
<g opacity="0.29">
<path opacity="0.29" d="M559.938 198.36C559.938 200.263 558.405 201.795 556.502 201.795H543.498C541.595 201.795 540.062 200.263 540.062 198.36V196.14C540.062 194.238 541.595 192.705 543.498 192.705H556.502C558.405 192.705 559.938 194.238 559.938 196.14V198.36Z" fill="#FAFAFA"/>
</g>
<g opacity="0.27">
<g opacity="0.27">
<g opacity="0.27">
<path opacity="0.27" d="M588.326 121.198H568.978H549.577V129.443C549.577 134.781 553.912 139.114 559.251 139.114C564.59 139.114 568.925 134.833 568.925 129.495C568.978 134.833 573.313 139.114 578.599 139.114C583.938 139.114 588.273 134.833 588.273 129.495C588.326 134.833 592.608 139.114 597.947 139.114C603.286 139.114 607.621 134.781 607.621 129.443V121.198H588.326Z" fill="#41636B"/>
</g>
<g opacity="0.27">
<path opacity="0.27" d="M646 121.251H627.128V121.198H607.727V129.443C607.727 134.781 612.062 139.114 617.401 139.114C622.053 139.114 625.912 135.838 626.863 131.504C627.762 135.89 631.674 139.22 636.326 139.22C641.507 139.22 645.736 135.15 646 129.971C646.264 135.098 650.493 139.167 655.674 139.167C661.013 139.167 665.348 134.833 665.348 129.495V121.251H646Z" fill="#41636B"/>
</g>
<g opacity="0.27">
<path opacity="0.27" d="M704.203 121.198H684.802H665.401V129.443C665.401 134.781 669.736 139.114 675.075 139.114C680.414 139.114 684.749 134.833 684.749 129.495C684.802 134.781 689.137 139.114 694.423 139.114C699.762 139.114 704.097 134.833 704.097 129.495C704.15 134.833 708.432 139.114 713.771 139.114C719.11 139.114 723.445 134.781 723.445 129.443V121.198H704.203Z" fill="#41636B"/>
</g>
</g>
<g opacity="0.27">
<path opacity="0.27" d="M543.762 121.25V138.374C547.198 136.894 549.577 133.459 549.577 129.495V121.25H543.762Z" fill="#41636B"/>
</g>
<g opacity="0.27">
<path opacity="0.27" d="M734.018 121.198H723.551V129.443C723.551 134.781 727.885 139.114 733.225 139.114C733.489 139.114 733.753 139.114 733.965 139.061V121.198H734.018Z" fill="#41636B"/>
</g>
</g>
<path d="M693.471 166.544C693.471 167.389 692.784 168.129 691.885 168.129H680.15C679.304 168.129 678.564 167.442 678.564 166.544C678.564 165.698 679.251 164.958 680.15 164.958H691.885C692.784 164.958 693.471 165.698 693.471 166.544Z" fill="white"/>
<path d="M683.057 166.544C683.057 168.341 681.577 169.821 679.78 169.821C677.982 169.821 676.502 168.341 676.502 166.544C676.502 164.747 677.982 163.267 679.78 163.267C681.577 163.267 683.057 164.747 683.057 166.544Z" fill="white"/>
<path d="M533.559 120.721C533.559 126.059 529.225 130.446 523.833 130.446C518.493 130.446 514.106 126.112 514.106 120.721V112.424H533.559V120.721Z" fill="#82EACD"/>
<path d="M552.96 120.721C552.96 126.059 548.626 130.446 543.233 130.446C537.894 130.446 533.559 126.112 533.559 120.721V112.424H552.96V120.721Z" fill="#59CFAE"/>
<path d="M572.361 120.669C572.361 126.007 568.026 130.393 562.634 130.393C557.295 130.393 552.96 126.059 552.96 120.669V112.424H572.361V120.669Z" fill="#82EACD"/>
<path d="M591.762 120.669C591.762 126.007 587.427 130.393 582.035 130.393C576.696 130.393 572.308 126.06 572.308 120.669V112.371H591.709V120.669H591.762Z" fill="#59CFAE"/>
<path d="M611.163 120.669C611.163 126.007 606.828 130.393 601.436 130.393C596.097 130.393 591.762 126.06 591.762 120.669V112.371H611.163V120.669Z" fill="#82EACD"/>
<path d="M630.564 120.669C630.564 126.007 626.229 130.393 620.837 130.393C615.498 130.393 611.163 126.06 611.163 120.669V112.371H630.564V120.669Z" fill="#59CFAE"/>
<path d="M649.542 120.721C649.542 126.059 645.207 130.446 639.815 130.446C634.476 130.446 630.141 126.112 630.141 120.721V112.424H649.542V120.721Z" fill="#82EACD"/>
<path d="M668.89 120.721C668.89 126.059 664.555 130.446 659.163 130.446C653.824 130.446 649.436 126.112 649.436 120.721V112.424H668.89V120.721Z" fill="#59CFAE"/>
<path d="M688.291 120.669C688.291 126.007 683.956 130.393 678.564 130.393C673.225 130.393 668.89 126.059 668.89 120.669V112.424H688.291V120.669Z" fill="#82EACD"/>
<path d="M707.692 120.669C707.692 126.007 703.357 130.393 697.965 130.393C692.626 130.393 688.238 126.06 688.238 120.669V112.371H707.639V120.669H707.692Z" fill="#59CFAE"/>
<path d="M727.093 120.669C727.093 126.007 722.758 130.393 717.366 130.393C712.026 130.393 707.692 126.06 707.692 120.669V112.371H727.093V120.669Z" fill="#82EACD"/>
<path d="M746.493 120.669C746.493 126.007 742.159 130.393 736.767 130.393C731.427 130.393 727.093 126.06 727.093 120.669V112.371H746.493V120.669Z" fill="#59CFAE"/>
<path d="M765.894 120.721C765.894 126.059 761.559 130.446 756.167 130.446C750.828 130.446 746.493 126.112 746.493 120.721V112.424H765.894V120.721Z" fill="#82EACD"/>
<path d="M733.595 208.243C733.595 205.39 731.269 203.011 728.361 203.011H664.925C662.07 203.011 659.692 205.337 659.692 208.243V212.577H733.542V208.243H733.595Z" fill="#82EACD"/>
<path d="M746.493 112.424L726.088 88.7993H742.74L765.894 112.424H746.493Z" fill="#59CFAE"/>
<path d="M746.493 112.424L726.088 88.7993H710.546L727.093 112.371L746.493 112.424Z" fill="#3AB895"/>
<path d="M707.692 112.371L695.004 88.7466L710.546 88.7994L727.093 112.371H707.692Z" fill="#59CFAE"/>
<path d="M707.692 112.371L695.004 88.7466H678.67L688.291 112.424L707.692 112.371Z" fill="#3AB895"/>
<path d="M668.89 112.424L662.863 88.7994L678.67 88.7466L688.291 112.424H668.89Z" fill="#59CFAE"/>
<path d="M668.89 112.424L662.863 88.7993H647.11L649.542 112.424H668.89Z" fill="#3AB895"/>
<path d="M630.141 112.424L631.304 88.7993H647.11L649.542 112.424H630.141Z" fill="#59CFAE"/>
<path d="M630.141 112.424L631.304 88.7995L615.921 88.6938L611.163 112.371L630.141 112.424Z" fill="#3AB895"/>
<path d="M533.559 112.424L552.96 88.7993H536.837L514.159 112.424H533.559Z" fill="#59CFAE"/>
<path d="M533.559 112.424L552.96 88.7993H568.449L553.013 112.371L533.559 112.424Z" fill="#3AB895"/>
<path d="M572.414 112.371L584.044 88.7466L568.449 88.7994L553.013 112.371H572.414Z" fill="#59CFAE"/>
<path d="M572.414 112.371L584.044 88.7466H600.379L591.762 112.424L572.414 112.371Z" fill="#3AB895"/>
<path d="M611.216 112.424L615.921 88.6938L600.379 88.7467L591.762 112.424H611.216Z" fill="#59CFAE"/>
</g>
<path d="M447.5 153.408C450.838 153.408 453.491 155.118 453.491 157.169L453.234 211.971C453.234 214.108 450.581 215.818 447.243 215.818C443.991 215.818 441.252 214.108 441.252 212.057L441.509 157.255C441.595 155.118 444.248 153.408 447.5 153.408Z" fill="#59CFAE"/>
<path fill-rule="evenodd" clip-rule="evenodd" d="M453.893 167.815C449.651 172.167 443.719 174.867 437.144 174.867C431.564 174.867 426.447 172.922 422.433 169.673C421.893 169.716 421.348 169.737 420.797 169.737C409.329 169.737 400 160.418 400 148.962C400 139.504 406.359 131.502 415.031 128.999C414.66 127.449 414.464 125.831 414.464 124.169C414.464 112.713 423.793 103.394 435.261 103.394C438.39 103.394 441.359 104.081 444.023 105.315C447.3 102.62 451.491 101 456.059 101C466.254 101 474.625 109.204 474.881 119.412C486.456 122.316 495 132.783 495 145.2C495 159.991 483.018 171.96 468.212 171.96C462.933 171.96 458.025 170.439 453.893 167.815Z" fill="#82EACD"/>
<path d="M469.838 223C465.131 215.818 456.914 211.031 447.671 211.031C438.342 211.031 430.212 215.818 425.505 223H469.838Z" fill="#82EACD"/>
<path d="M831.5 168.091C833.995 168.091 835.977 169.367 835.977 170.897L835.786 211.774C835.786 213.368 833.803 214.644 831.308 214.644C828.877 214.644 826.831 213.368 826.831 211.838L827.023 170.961C827.086 169.367 829.069 168.091 831.5 168.091Z" fill="#59CFAE"/>
<path fill-rule="evenodd" clip-rule="evenodd" d="M836.278 178.837C833.108 182.084 828.674 184.097 823.76 184.097C819.59 184.097 815.766 182.647 812.766 180.224C812.362 180.255 811.955 180.271 811.543 180.271C802.972 180.271 796 173.32 796 164.775C796 157.72 800.753 151.751 807.234 149.884C806.957 148.728 806.81 147.522 806.81 146.282C806.81 137.737 813.782 130.786 822.353 130.786C824.691 130.786 826.911 131.298 828.902 132.218C831.351 130.208 834.483 129 837.896 129C845.516 129 851.772 135.12 851.964 142.733C860.614 144.9 867 152.707 867 161.969C867 173.001 858.045 181.929 846.979 181.929C843.034 181.929 839.366 180.795 836.278 178.837Z" fill="#82EACD"/>
<path d="M848.195 220C844.677 214.643 838.536 211.072 831.628 211.072C824.656 211.072 818.579 214.643 815.061 220H848.195Z" fill="#82EACD"/>
<ellipse cx="640" cy="310" rx="497" ry="100" fill="#E2FCF6"/>
<g clip-path="url(#clip2)">
<path d="M989.757 227.574H981.122V204.198C981.122 203.651 981.547 203.166 982.155 203.166H988.784C989.331 203.166 989.818 203.591 989.818 204.198V227.574H989.757Z" fill="#59CFAE"/>
<path d="M988.176 160.906H982.095V225.753H988.176V160.906Z" fill="#59CFAE"/>
<path d="M994.318 240.325C994.135 240.142 993.953 240.082 993.709 240.082C993.466 240.082 993.284 239.9 993.284 239.657V221.199C993.284 216.948 989.818 213.427 985.5 213.427C981.243 213.427 977.716 216.888 977.716 221.199V239.657C977.716 239.9 977.534 240.082 977.291 240.082C977.047 240.082 976.804 240.203 976.682 240.325L972 245L999 245.061L994.318 240.325Z" fill="#82EACD"/>
<path d="M987.385 115.429C987.385 116.764 986.291 117.857 984.953 117.857C983.615 117.857 982.52 116.764 982.52 115.429C982.52 114.093 983.615 113 984.953 113C986.291 113 987.385 114.093 987.385 115.429Z" fill="#59CFAE"/>
<path d="M993.709 126.115C993.709 121.318 989.818 117.493 985.074 117.493C980.27 117.493 976.439 121.379 976.439 126.115V127.329H993.77V126.115H993.709Z" fill="#82EACD"/>
<path d="M997.905 127.208H972.608C972.608 128.119 973.338 128.847 974.25 128.847H996.324C997.176 128.847 997.905 128.119 997.905 127.208Z" fill="#59CFAE"/>
<path d="M995.959 128.726H974.493C974.493 129.637 975.223 130.365 976.074 130.365H994.378C995.23 130.305 995.959 129.576 995.959 128.726Z" fill="#82EACD"/>
<g opacity="0.8">
<path opacity="0.8" d="M976.804 131.58V145.059C976.804 147.548 977.777 149.977 979.601 151.799C981.73 153.924 982.885 156.838 982.885 159.813V161.392L987.507 161.331V159.874C987.507 156.838 988.723 153.984 990.791 151.799C992.554 149.977 993.588 147.548 993.588 144.998V131.58H976.804Z" fill="#82EACD"/>
</g>
<path d="M994.743 130.183H975.649C975.649 131.094 976.318 131.822 977.23 131.822H993.101C994.014 131.822 994.743 131.094 994.743 130.183Z" fill="#59CFAE"/>
<path d="M987.568 151.009H982.824V156.656H987.568V151.009Z" fill="#59CFAE"/>
<path d="M988.966 145.241C988.966 143.177 987.263 141.477 985.196 141.477C983.128 141.477 981.426 143.177 981.426 145.241C981.426 145.909 981.608 146.516 981.851 147.002C982.155 147.609 982.459 148.216 982.459 148.884V150.766C982.459 152.284 983.676 153.499 985.196 153.499C986.716 153.499 987.932 152.284 987.932 150.766V148.823C987.932 148.155 988.236 147.548 988.541 146.941C988.784 146.455 988.966 145.848 988.966 145.241Z" fill="white"/>
<path d="M987.872 151.434C987.872 152.952 986.655 154.167 985.135 154.167C983.615 154.167 982.399 152.952 982.399 151.434V151.191H987.811V151.434H987.872Z" fill="#82EACD"/>
<path d="M988.723 157.385C988.419 157.142 988.297 156.777 988.297 156.352V156.292C988.297 156.17 988.176 156.049 988.054 156.049H982.459C982.338 156.049 982.216 156.17 982.216 156.292V156.352C982.216 156.717 982.034 157.081 981.791 157.385L981.365 157.81C981.243 157.931 981.182 158.053 981.182 158.235V162.303C981.182 163.396 982.095 164.306 983.189 164.306H987.324C988.419 164.306 989.331 163.396 989.331 162.303V158.235C989.331 158.053 989.27 157.931 989.149 157.81L988.723 157.385Z" fill="#82EACD"/>
</g>
<g clip-path="url(#clip3)">
<path d="M306.757 227.574H298.122V204.198C298.122 203.651 298.547 203.166 299.155 203.166H305.784C306.331 203.166 306.818 203.591 306.818 204.198V227.574H306.757Z" fill="#59CFAE"/>
<path d="M305.176 160.906H299.095V225.753H305.176V160.906Z" fill="#59CFAE"/>
<path d="M311.318 240.325C311.135 240.142 310.953 240.082 310.709 240.082C310.466 240.082 310.284 239.9 310.284 239.657V221.199C310.284 216.948 306.818 213.427 302.5 213.427C298.243 213.427 294.716 216.888 294.716 221.199V239.657C294.716 239.9 294.534 240.082 294.291 240.082C294.047 240.082 293.804 240.203 293.682 240.325L289 245L316 245.061L311.318 240.325Z" fill="#82EACD"/>
<path d="M304.385 115.429C304.385 116.764 303.291 117.857 301.953 117.857C300.615 117.857 299.52 116.764 299.52 115.429C299.52 114.093 300.615 113 301.953 113C303.291 113 304.385 114.093 304.385 115.429Z" fill="#59CFAE"/>
<path d="M310.709 126.115C310.709 121.318 306.818 117.493 302.074 117.493C297.27 117.493 293.439 121.379 293.439 126.115V127.329H310.77V126.115H310.709Z" fill="#82EACD"/>
<path d="M314.905 127.208H289.608C289.608 128.119 290.338 128.847 291.25 128.847H313.324C314.176 128.847 314.905 128.119 314.905 127.208Z" fill="#59CFAE"/>
<path d="M312.959 128.726H291.493C291.493 129.637 292.223 130.365 293.074 130.365H311.378C312.23 130.305 312.959 129.576 312.959 128.726Z" fill="#82EACD"/>
<g opacity="0.8">
<path opacity="0.8" d="M293.804 131.58V145.059C293.804 147.548 294.777 149.977 296.601 151.799C298.73 153.924 299.885 156.838 299.885 159.813V161.392L304.507 161.331V159.874C304.507 156.838 305.723 153.984 307.791 151.799C309.554 149.977 310.588 147.548 310.588 144.998V131.58H293.804Z" fill="#82EACD"/>
</g>
<path d="M311.743 130.183H292.649C292.649 131.094 293.318 131.822 294.23 131.822H310.101C311.014 131.822 311.743 131.094 311.743 130.183Z" fill="#59CFAE"/>
<path d="M304.568 151.009H299.824V156.656H304.568V151.009Z" fill="#59CFAE"/>
<path d="M305.966 145.241C305.966 143.177 304.263 141.477 302.196 141.477C300.128 141.477 298.426 143.177 298.426 145.241C298.426 145.909 298.608 146.516 298.851 147.002C299.155 147.609 299.459 148.216 299.459 148.884V150.766C299.459 152.284 300.676 153.499 302.196 153.499C303.716 153.499 304.932 152.284 304.932 150.766V148.823C304.932 148.155 305.236 147.548 305.541 146.941C305.784 146.455 305.966 145.848 305.966 145.241Z" fill="white"/>
<path d="M304.872 151.434C304.872 152.952 303.655 154.167 302.135 154.167C300.615 154.167 299.399 152.952 299.399 151.434V151.191H304.811V151.434H304.872Z" fill="#82EACD"/>
<path d="M305.723 157.385C305.419 157.142 305.297 156.777 305.297 156.352V156.292C305.297 156.17 305.176 156.049 305.054 156.049H299.459C299.338 156.049 299.216 156.17 299.216 156.292V156.352C299.216 156.717 299.034 157.081 298.791 157.385L298.365 157.81C298.243 157.931 298.182 158.053 298.182 158.235V162.303C298.182 163.396 299.095 164.306 300.189 164.306H304.324C305.419 164.306 306.331 163.396 306.331 162.303V158.235C306.331 158.053 306.27 157.931 306.149 157.81L305.723 157.385Z" fill="#82EACD"/>
</g>
<path fill-rule="evenodd" clip-rule="evenodd" d="M1096 158C1105.39 158 1113 165.612 1113 175H1096V158Z" fill="#59CFAE"/>
<path fill-rule="evenodd" clip-rule="evenodd" d="M1113 176V193H1096" fill="#82EACD"/>
<path d="M232.886 69.4095C231.435 62.3361 225.132 57 217.585 57C210.576 57 204.605 61.6329 202.656 68.0031C197.514 68.0445 193.243 71.8914 192.538 76.8552C187.23 77.1448 183 81.5295 183 86.9069C183 92.4912 187.52 97 193.118 97C198.136 97 224.095 97 230.025 97C237.738 97 244 90.7539 244 83.06C244 76.3175 239.231 70.7332 232.886 69.4095Z" fill="#E2FCF6"/>
<path d="M1107.89 36.4095C1106.44 29.3361 1100.13 24 1092.58 24C1085.58 24 1079.61 28.6329 1077.66 35.0031C1072.51 35.0445 1068.24 38.8914 1067.54 43.8552C1062.23 44.1448 1058 48.5295 1058 53.9069C1058 59.4912 1062.52 64 1068.12 64C1073.14 64 1099.1 64 1105.03 64C1112.74 64 1119 57.7539 1119 50.06C1119 43.3175 1114.23 37.7332 1107.89 36.4095Z" fill="#E2FCF6"/>
<path d="M0 180H300C308.837 180 316 187.163 316 196V256H0V180Z" fill="white"/>
<rect width="18" height="18" transform="translate(16 196)" fill="white"/>
<path d="M25.2545 208.379L28.1642 210.176C28.5362 210.406 28.9979 210.064 28.8876 209.641L28.0469 206.416C28.0232 206.327 28.026 206.232 28.055 206.144C28.0839 206.056 28.1379 205.977 28.2106 205.917L30.8199 203.8C31.1627 203.522 30.9858 202.967 30.5453 202.939L27.1377 202.723C27.046 202.717 26.9579 202.685 26.8839 202.632C26.8099 202.579 26.7529 202.506 26.7196 202.422L25.4487 199.302C25.4142 199.213 25.3528 199.137 25.2726 199.083C25.1925 199.029 25.0974 199 25 199C24.9026 199 24.8075 199.029 24.7274 199.083C24.6473 199.137 24.5858 199.213 24.5513 199.302L23.2804 202.422C23.2471 202.506 23.1901 202.579 23.1161 202.632C23.0421 202.685 22.954 202.717 22.8623 202.723L19.4547 202.939C19.0142 202.967 18.8373 203.522 19.1801 203.8L21.7894 205.917C21.8621 205.977 21.9161 206.056 21.945 206.144C21.974 206.232 21.9768 206.327 21.9531 206.416L21.1735 209.407C21.041 209.915 21.5952 210.325 22.0415 210.049L24.7455 208.379C24.8216 208.332 24.9098 208.306 25 208.306C25.0902 208.306 25.1784 208.332 25.2545 208.379Z" fill="#FCB033" stroke="#FCB033" stroke-width="1.5" stroke-linecap="round" stroke-linejoin="round"/>
<rect width="18" height="18" transform="translate(34 196)" fill="white"/>
<path d="M43.2545 208.379L46.1642 210.176C46.5362 210.406 46.9979 210.064 46.8876 209.641L46.0469 206.416C46.0232 206.327 46.026 206.232 46.055 206.144C46.0839 206.056 46.1379 205.977 46.2106 205.917L48.8199 203.8C49.1627 203.522 48.9858 202.967 48.5453 202.939L45.1377 202.723C45.046 202.717 44.9579 202.685 44.8839 202.632C44.8099 202.579 44.7529 202.506 44.7196 202.422L43.4487 199.302C43.4142 199.213 43.3528 199.137 43.2726 199.083C43.1925 199.029 43.0974 199 43 199C42.9026 199 42.8075 199.029 42.7274 199.083C42.6473 199.137 42.5858 199.213 42.5513 199.302L41.2804 202.422C41.2471 202.506 41.1901 202.579 41.1161 202.632C41.0421 202.685 40.954 202.717 40.8623 202.723L37.4547 202.939C37.0142 202.967 36.8373 203.522 37.1801 203.8L39.7894 205.917C39.8621 205.977 39.9161 206.056 39.945 206.144C39.974 206.232 39.9768 206.327 39.9531 206.416L39.1735 209.407C39.041 209.915 39.5952 210.325 40.0415 210.049L42.7455 208.379C42.8216 208.332 42.9098 208.306 43 208.306C43.0902 208.306 43.1784 208.332 43.2545 208.379Z" fill="#FCB033" stroke="#FCB033" stroke-width="1.5" stroke-linecap="round" stroke-linejoin="round"/>
<rect width="18" height="18" transform="translate(52 196)" fill="white"/>
<path d="M61.2545 208.379L64.1642 210.176C64.5362 210.406 64.9979 210.064 64.8876 209.641L64.0469 206.416C64.0232 206.327 64.026 206.232 64.055 206.144C64.0839 206.056 64.1379 205.977 64.2106 205.917L66.8199 203.8C67.1627 203.522 66.9858 202.967 66.5453 202.939L63.1377 202.723C63.046 202.717 62.9579 202.685 62.8839 202.632C62.8099 202.579 62.7529 202.506 62.7196 202.422L61.4487 199.302C61.4142 199.213 61.3528 199.137 61.2726 199.083C61.1925 199.029 61.0974 199 61 199C60.9026 199 60.8075 199.029 60.7274 199.083C60.6473 199.137 60.5858 199.213 60.5513 199.302L59.2804 202.422C59.2471 202.506 59.1901 202.579 59.1161 202.632C59.0421 202.685 58.954 202.717 58.8623 202.723L55.4547 202.939C55.0142 202.967 54.8373 203.522 55.1801 203.8L57.7894 205.917C57.8621 205.977 57.9161 206.056 57.945 206.144C57.974 206.232 57.9768 206.327 57.9531 206.416L57.1735 209.407C57.041 209.915 57.5952 210.325 58.0415 210.049L60.7455 208.379C60.8216 208.332 60.9098 208.306 61 208.306C61.0902 208.306 61.1784 208.332 61.2545 208.379Z" fill="#FCB033" stroke="#FCB033" stroke-width="1.5" stroke-linecap="round" stroke-linejoin="round"/>
<rect width="18" height="18" transform="translate(70 196)" fill="white"/>
<path d="M79.2545 208.379L82.1642 210.176C82.5362 210.406 82.9979 210.064 82.8876 209.641L82.0469 206.416C82.0232 206.327 82.026 206.232 82.055 206.144C82.0839 206.056 82.1379 205.977 82.2106 205.917L84.8199 203.8C85.1627 203.522 84.9858 202.967 84.5453 202.939L81.1377 202.723C81.046 202.717 80.9579 202.685 80.8839 202.632C80.8099 202.579 80.7529 202.506 80.7196 202.422L79.4487 199.302C79.4142 199.213 79.3528 199.137 79.2726 199.083C79.1925 199.029 79.0974 199 79 199C78.9026 199 78.8075 199.029 78.7274 199.083C78.6473 199.137 78.5858 199.213 78.5513 199.302L77.2804 202.422C77.2471 202.506 77.1901 202.579 77.1161 202.632C77.0421 202.685 76.954 202.717 76.8623 202.723L73.4547 202.939C73.0142 202.967 72.8373 203.522 73.1801 203.8L75.7894 205.917C75.8621 205.977 75.9161 206.056 75.945 206.144C75.974 206.232 75.9768 206.327 75.9531 206.416L75.1735 209.407C75.041 209.915 75.5952 210.325 76.0415 210.049L78.7455 208.379C78.8216 208.332 78.9098 208.306 79 208.306C79.0902 208.306 79.1784 208.332 79.2545 208.379Z" fill="#FCB033" stroke="#FCB033" stroke-width="1.5" stroke-linecap="round" stroke-linejoin="round"/>
<rect width="18" height="18" transform="translate(88 196)" fill="white"/>
<path d="M97.2545 208.379L100.164 210.176C100.536 210.406 100.998 210.064 100.888 209.641L100.047 206.416C100.023 206.327 100.026 206.232 100.055 206.144C100.084 206.056 100.138 205.977 100.211 205.917L102.82 203.8C103.163 203.522 102.986 202.967 102.545 202.939L99.1377 202.723C99.046 202.717 98.9579 202.685 98.8839 202.632C98.8099 202.579 98.7529 202.506 98.7196 202.422L97.4487 199.302C97.4142 199.213 97.3528 199.137 97.2726 199.083C97.1925 199.029 97.0974 199 97 199C96.9026 199 96.8075 199.029 96.7274 199.083C96.6473 199.137 96.5858 199.213 96.5513 199.302L95.2804 202.422C95.2471 202.506 95.1901 202.579 95.1161 202.632C95.0421 202.685 94.954 202.717 94.8623 202.723L91.4547 202.939C91.0142 202.967 90.8373 203.522 91.1801 203.8L93.7894 205.917C93.8621 205.977 93.9161 206.056 93.945 206.144C93.974 206.232 93.9768 206.327 93.9531 206.416L93.1735 209.407C93.041 209.915 93.5952 210.325 94.0415 210.049L96.7455 208.379C96.8216 208.332 96.9098 208.306 97 208.306C97.0902 208.306 97.1784 208.332 97.2545 208.379Z" fill="#E9ECEF" stroke="#E9ECEF" stroke-width="1.5" stroke-linecap="round" stroke-linejoin="round"/>
<path d="M96.5513 199.302C96.5858 199.213 96.6473 199.137 96.7274 199.083C96.8599 198.994 97 199.129 97 199.289V208.306C96.9098 208.306 96.8216 208.332 96.7455 208.379L94.0415 210.049C93.5952 210.325 93.041 209.915 93.1735 209.407L93.9531 206.416C93.9768 206.327 93.974 206.232 93.945 206.144C93.9161 206.056 93.8621 205.977 93.7894 205.917L91.1801 203.8C90.8373 203.522 91.0142 202.967 91.4547 202.939L94.8623 202.723C94.954 202.717 95.0421 202.685 95.1161 202.632C95.1901 202.579 95.2471 202.506 95.2804 202.422L96.5513 199.302Z" fill="#FCB033" stroke="#FCB033" stroke-width="1.5" stroke-linecap="round" stroke-linejoin="round"/>
<path d="M114.518 206.444C114.518 207.004 114.882 207.424 115.54 207.424H119.362V209.258C119.362 209.818 119.74 210.196 120.328 210.196C120.874 210.196 121.266 209.818 121.266 209.258V207.424H122.19C122.638 207.424 123.016 207.06 123.016 206.612C123.016 206.15 122.638 205.772 122.19 205.772H121.266V201.348C121.266 200.508 120.762 199.962 119.992 199.962C119.278 199.962 118.9 200.41 118.662 200.732L114.784 205.688C114.63 205.884 114.518 206.15 114.518 206.444ZM119.082 202.79C119.25 202.58 119.278 202.51 119.376 202.342C119.362 202.496 119.362 202.748 119.362 202.986V205.772H116.758L119.082 202.79ZM125.766 210.182C126.508 210.182 127.04 209.608 127.04 208.964C127.04 208.264 126.494 207.732 125.766 207.732C125.024 207.732 124.478 208.278 124.478 208.964C124.478 209.622 125.024 210.182 125.766 210.182ZM128.164 200.984C128.164 201.488 128.486 201.852 129.032 201.852H132.742L129.55 208.824C129.508 208.95 129.48 209.062 129.48 209.244C129.48 209.776 129.9 210.196 130.446 210.196C130.824 210.196 131.174 209.958 131.328 209.608L134.996 201.418C135.052 201.292 135.094 201.138 135.094 201.012C135.094 200.522 134.688 200.13 134.184 200.13H129.032C128.514 200.13 128.164 200.452 128.164 200.984Z" fill="#123456"/>
<path fill-rule="evenodd" clip-rule="evenodd" d="M33.1408 231.334L32.1712 230.106L32.1721 230.105L30.6123 227.054C30.5239 226.882 30.3441 226.773 30.1476 226.773H27.9291V226.261C27.9291 225.979 27.6963 225.75 27.4092 225.75H18.7432C18.456 225.75 18.2232 225.979 18.2232 226.261C18.2232 226.544 18.456 226.773 18.7432 226.773H26.8892V230.352C26.8892 230.635 27.122 230.864 27.4091 230.864H31.4529L32.2101 231.823V234.46H31.2301C31.0047 233.57 30.1852 232.909 29.2117 232.909C28.2381 232.909 27.4186 233.57 27.1932 234.46H24.124C23.8987 233.57 23.0792 232.909 22.1056 232.909C21.132 232.909 20.3125 233.57 20.0871 234.46H18.7432C18.456 234.46 18.2232 234.689 18.2232 234.972C18.2232 235.254 18.456 235.483 18.7432 235.483H20.0961C20.3335 236.356 21.1444 237 22.1056 237C23.0667 237 23.8776 236.356 24.1151 235.483H27.2022C27.4396 236.356 28.2505 237 29.2117 237C30.173 237 30.9838 236.356 31.2212 235.483H32.73C33.0172 235.483 33.25 235.254 33.25 234.972V231.648C33.25 231.534 33.2115 231.424 33.1408 231.334ZM29.8269 227.795L30.8726 229.841H27.9291V227.795H29.8269ZM21.0657 234.955C21.0657 235.519 21.5321 235.977 22.1056 235.977C22.6791 235.977 23.1455 235.519 23.1455 234.955C23.1455 234.391 22.6789 233.932 22.1056 233.932C21.5321 233.932 21.0657 234.391 21.0657 234.955ZM28.1717 234.955C28.1717 235.519 28.6382 235.977 29.2117 235.977C29.7852 235.977 30.2516 235.519 30.2516 234.955C30.2516 234.391 29.7852 233.932 29.2117 233.932C28.6382 233.932 28.1717 234.391 28.1717 234.955ZM18.1192 231.869H20.511C20.7982 231.869 21.031 232.098 21.0309 232.381C21.0309 232.663 20.7982 232.892 20.511 232.892H18.1192C17.832 232.892 17.5993 232.663 17.5993 232.381C17.5993 232.098 17.832 231.869 18.1192 231.869ZM21.7069 229.858H17.2699C16.9828 229.858 16.75 230.087 16.75 230.369C16.75 230.652 16.9828 230.881 17.2699 230.881H21.7069C21.9941 230.881 22.2269 230.652 22.2269 230.369C22.2269 230.087 21.9941 229.858 21.7069 229.858ZM18.1192 227.847H22.5562C22.8434 227.847 23.0762 228.076 23.0761 228.358C23.0761 228.64 22.8434 228.869 22.5562 228.869H18.1192C17.832 228.869 17.5993 228.64 17.5993 228.358C17.5993 228.076 17.832 227.847 18.1192 227.847Z" fill="#123456"/>
<path d="M40.42 227.146C40.42 227.566 40.672 227.874 41.12 227.874C41.26 227.874 41.456 227.832 41.666 227.678L42.31 227.286C42.464 227.174 42.744 226.978 42.94 226.796C42.898 227.16 42.898 227.552 42.898 228.056V234.398C42.898 234.86 43.178 235.196 43.668 235.196C44.144 235.196 44.466 234.902 44.466 234.398V225.676C44.466 225.242 44.172 224.962 43.752 224.962C43.5 224.962 43.36 225.018 43.192 225.102L40.91 226.432C40.602 226.614 40.42 226.838 40.42 227.146ZM47.8682 235.182C48.5122 235.182 48.9882 234.678 48.9882 234.104C48.9882 233.488 48.5122 233.012 47.8682 233.012C47.2242 233.012 46.7342 233.502 46.7342 234.104C46.7342 234.692 47.2242 235.182 47.8682 235.182ZM56.6601 235C57.1641 235 57.4441 234.734 57.4441 234.286C57.4441 233.88 57.1921 233.586 56.6601 233.586H54.9101C54.2241 233.586 53.2721 233.628 52.7121 233.712L55.4281 231.052C56.2261 230.268 57.0801 229.302 57.0801 227.874C57.0801 226.11 55.7641 224.948 53.8881 224.948C52.1381 224.948 50.6261 225.998 50.5141 227.678C50.5001 228.112 50.7521 228.406 51.2141 228.406C51.5641 228.406 51.8581 228.224 51.9561 227.86C52.1521 226.936 52.8661 226.376 53.8181 226.376C54.8261 226.376 55.4841 227.034 55.4841 227.958C55.4841 228.7 55.0501 229.372 54.3501 230.114L50.7801 233.712C50.5981 233.894 50.5141 234.062 50.5141 234.314C50.5141 234.678 50.7381 235 51.2141 235H56.6601ZM68.4915 229.316C68.7715 229.078 68.8835 228.896 68.8835 228.588C68.8835 228.266 68.6035 227.972 68.2395 227.972C67.9875 227.972 67.7775 228.014 67.4975 228.28L64.1655 231.332V225.69C64.1655 225.242 63.8855 224.934 63.3955 224.934C62.9335 224.934 62.5975 225.2 62.5975 225.69V234.44C62.5975 234.902 62.9055 235.196 63.3955 235.196C63.8855 235.196 64.1655 234.888 64.1655 234.44V233.096L65.3695 232.046L67.5115 234.804C67.7635 235.112 68.0295 235.196 68.2675 235.196C68.6735 235.196 69.0095 234.874 69.0095 234.496C69.0095 234.23 68.9115 234.034 68.7715 233.866L66.5315 231.066L68.4915 229.316ZM79.2033 227.944C78.2793 227.944 77.2713 228.392 76.7393 229.204C76.3053 228.392 75.5073 227.944 74.4573 227.944C73.5473 227.944 72.7633 228.308 72.2593 228.938V228.714C72.2593 228.238 71.9513 227.944 71.4893 227.944C70.9993 227.944 70.6913 228.238 70.6913 228.714V234.426C70.6913 234.888 70.9993 235.196 71.4753 235.196C71.9513 235.196 72.2593 234.888 72.2593 234.426V230.296C72.5673 229.68 73.1413 229.288 73.9253 229.288C75.0313 229.288 75.5213 229.946 75.5213 231.052V234.426C75.5213 234.888 75.8153 235.196 76.3053 235.196C76.7813 235.196 77.0893 234.888 77.0893 234.426V230.856C77.0893 230.66 77.0753 230.464 77.0613 230.282C77.3693 229.68 78.0273 229.288 78.7413 229.288C79.8333 229.288 80.3233 229.946 80.3233 231.052V234.426C80.3233 234.888 80.6313 235.196 81.1353 235.196C81.6113 235.196 81.9053 234.888 81.9053 234.426V230.814C81.9053 228.952 80.8693 227.944 79.2033 227.944ZM89.696 232.774C90.858 232.774 91.67 231.85 91.67 230.814C91.67 229.694 90.816 228.854 89.696 228.854C88.576 228.854 87.722 229.722 87.722 230.814C87.722 231.892 88.576 232.774 89.696 232.774Z" fill="#123456"/>
<path d="M100.966 229.932C100.966 230.338 101.246 230.604 101.638 230.604H103.752V231.976C103.752 232.41 104.032 232.69 104.452 232.69C104.886 232.69 105.166 232.41 105.166 231.976V230.604H107.252C107.658 230.604 107.924 230.338 107.924 229.932C107.924 229.526 107.658 229.26 107.252 229.26H105.166V227.888C105.166 227.454 104.886 227.174 104.452 227.174C104.032 227.174 103.752 227.454 103.752 227.888V229.26H101.638C101.246 229.26 100.966 229.526 100.966 229.932ZM100.966 234.328C100.966 234.734 101.246 235 101.638 235H107.252C107.658 235 107.924 234.734 107.924 234.328C107.924 233.922 107.658 233.656 107.252 233.656H101.638C101.246 233.656 100.966 233.922 100.966 234.328ZM118.326 230.464C119.838 230.296 120.846 229.358 120.846 227.804C120.846 226.194 119.754 225.13 117.892 225.13H114.546C113.93 225.13 113.51 225.494 113.51 226.166V234.412C113.51 234.888 113.804 235.196 114.308 235.196C114.77 235.196 115.106 234.916 115.106 234.412V230.562H116.562L119.222 234.748C119.418 235.056 119.642 235.196 119.978 235.196C120.412 235.196 120.762 234.874 120.762 234.468C120.762 234.23 120.692 234.09 120.594 233.936L118.326 230.464ZM117.626 226.516C118.592 226.516 119.166 226.992 119.166 227.874C119.166 228.686 118.62 229.218 117.64 229.218H115.106V226.516H117.626ZM126.653 227.972C125.645 227.972 124.805 228.364 124.357 228.966V228.728C124.357 228.238 124.021 227.972 123.587 227.972C123.097 227.972 122.789 228.28 122.789 228.728V237.576C122.789 238.038 123.111 238.318 123.573 238.318C124.049 238.318 124.357 238.024 124.357 237.576V234.216C124.847 234.86 125.729 235.224 126.653 235.224C128.627 235.224 129.943 233.782 129.943 231.584C129.943 229.414 128.627 227.972 126.653 227.972ZM126.261 233.88C125.421 233.88 124.693 233.446 124.357 232.83V230.338C124.693 229.722 125.407 229.316 126.261 229.316C127.493 229.316 128.347 230.156 128.347 231.584C128.347 233.04 127.493 233.88 126.261 233.88ZM134.661 232.214C134.661 233.978 136.145 235.14 138.245 235.14C140.359 235.14 141.829 233.978 141.829 232.214C141.829 231.122 141.199 230.1 140.051 229.75C140.947 229.372 141.479 228.546 141.479 227.58C141.479 226.026 140.219 224.948 138.245 224.948C136.285 224.948 134.997 226.012 134.997 227.58C134.997 228.532 135.515 229.358 136.439 229.75C135.361 230.114 134.661 231.052 134.661 232.214ZM136.551 227.72C136.551 226.894 137.209 226.334 138.231 226.334C139.267 226.334 139.939 226.866 139.939 227.734C139.939 228.532 139.295 229.12 138.245 229.12C137.195 229.12 136.551 228.518 136.551 227.72ZM136.271 232.116C136.271 231.08 137.125 230.506 138.245 230.506C139.379 230.506 140.233 231.094 140.233 232.116C140.233 233.138 139.379 233.754 138.245 233.754C137.139 233.754 136.271 233.152 136.271 232.116ZM144.564 235.182C145.208 235.182 145.684 234.678 145.684 234.104C145.684 233.488 145.208 233.012 144.564 233.012C143.92 233.012 143.43 233.502 143.43 234.104C143.43 234.692 143.92 235.182 144.564 235.182ZM150.842 235.168C153.194 235.168 154.58 233.222 154.58 230.072C154.58 226.894 153.208 224.948 150.842 224.948C148.518 224.948 147.146 226.894 147.146 230.072C147.146 233.222 148.518 235.168 150.842 235.168ZM150.842 233.754C149.47 233.754 148.756 232.396 148.756 230.072C148.756 227.706 149.47 226.376 150.842 226.376C152.256 226.376 152.956 227.762 152.956 230.072C152.956 232.368 152.256 233.754 150.842 233.754ZM159.906 235.168C162.258 235.168 163.644 233.222 163.644 230.072C163.644 226.894 162.272 224.948 159.906 224.948C157.582 224.948 156.21 226.894 156.21 230.072C156.21 233.222 157.582 235.168 159.906 235.168ZM159.906 233.754C158.534 233.754 157.82 232.396 157.82 230.072C157.82 227.706 158.534 226.376 159.906 226.376C161.32 226.376 162.02 227.762 162.02 230.072C162.02 232.368 161.32 233.754 159.906 233.754ZM168.971 235.168C171.323 235.168 172.709 233.222 172.709 230.072C172.709 226.894 171.337 224.948 168.971 224.948C166.647 224.948 165.275 226.894 165.275 230.072C165.275 233.222 166.647 235.168 168.971 235.168ZM168.971 233.754C167.599 233.754 166.885 232.396 166.885 230.072C166.885 227.706 167.599 226.376 168.971 226.376C170.385 226.376 171.085 227.762 171.085 230.072C171.085 232.368 170.385 233.754 168.971 233.754Z" fill="#123456"/>
<line x1="190.5" y1="196" x2="190.5" y2="240" stroke="#E9ECEF"/>
<rect x="206" y="198.5" width="94" height="39" rx="8" fill="white"/>
<path d="M223.288 222.668C225.78 222.668 227.334 221.478 227.334 219.672C227.334 218.174 226.382 217.306 224.87 216.984L222.518 216.466C221.622 216.27 221.3 215.906 221.3 215.374C221.3 214.702 222.014 214.198 223.106 214.198C224.226 214.198 224.996 214.674 225.08 215.71H227.138C227.138 213.61 225.346 212.616 223.092 212.616C220.908 212.616 219.312 213.75 219.312 215.514C219.312 217.012 220.264 217.866 221.762 218.202L224.114 218.72C225.024 218.916 225.346 219.266 225.346 219.812C225.346 220.568 224.548 221.058 223.344 221.058C222.07 221.058 221.202 220.428 221.132 219.35H219.074C219.13 221.436 220.656 222.668 223.288 222.668ZM228.505 219.028C228.505 221.352 230.059 222.64 232.131 222.64C233.923 222.64 235.309 221.8 235.617 220.26H233.657C233.489 220.876 232.873 221.24 232.131 221.24C231.109 221.24 230.465 220.442 230.423 219.588H235.715V218.986C235.715 216.746 234.385 215.416 232.145 215.416C229.919 215.416 228.505 216.858 228.505 219.028ZM230.437 218.3C230.549 217.474 231.235 216.76 232.187 216.76C233.055 216.76 233.755 217.404 233.797 218.3H230.437ZM236.804 219.028C236.804 221.352 238.358 222.64 240.43 222.64C242.222 222.64 243.608 221.8 243.916 220.26H241.956C241.788 220.876 241.172 221.24 240.43 221.24C239.408 221.24 238.764 220.442 238.722 219.588H244.014V218.986C244.014 216.746 242.684 215.416 240.444 215.416C238.218 215.416 236.804 216.858 236.804 219.028ZM238.736 218.3C238.848 217.474 239.534 216.76 240.486 216.76C241.354 216.76 242.054 217.404 242.096 218.3H238.736ZM257.41 217.642C257.41 214.856 255.8 212.784 252.342 212.784H248.548V222.5H252.342C255.8 222.5 257.41 220.442 257.41 217.642ZM255.31 217.642C255.31 219.714 254.134 220.792 252.3 220.792H250.536V214.492H252.3C254.134 214.492 255.31 215.57 255.31 217.642ZM258.488 219.028C258.488 221.352 260.042 222.64 262.114 222.64C263.906 222.64 265.292 221.8 265.6 220.26H263.64C263.472 220.876 262.856 221.24 262.114 221.24C261.092 221.24 260.448 220.442 260.406 219.588H265.698V218.986C265.698 216.746 264.368 215.416 262.128 215.416C259.902 215.416 258.488 216.858 258.488 219.028ZM260.42 218.3C260.532 217.474 261.218 216.76 262.17 216.76C263.038 216.76 263.738 217.404 263.78 218.3H260.42ZM266.619 217.11H267.669V220.302C267.669 221.786 268.355 222.584 269.881 222.584C270.343 222.584 270.931 222.542 271.393 222.444V220.89C271.113 220.946 270.791 220.988 270.511 220.988C269.783 220.988 269.559 220.61 269.559 219.868V217.11H271.393V215.556H269.559V213.806H267.683V215.556H266.619V217.11ZM279.249 222.5V218.146C279.249 216.298 278.185 215.416 276.043 215.416C274.097 215.416 272.921 216.214 272.851 217.698H274.741C274.797 217.11 275.203 216.732 276.043 216.732C276.841 216.732 277.401 217.068 277.401 217.824V217.992L274.881 218.426C273.523 218.664 272.599 219.364 272.599 220.596C272.599 221.912 273.649 222.64 274.993 222.64C276.071 222.64 277.023 222.234 277.527 221.408V222.5H279.249ZM275.511 221.268C274.811 221.268 274.405 220.974 274.405 220.512C274.405 219.98 274.755 219.756 275.511 219.63L277.401 219.294V219.616C277.401 220.68 276.421 221.268 275.511 221.268ZM281.001 215.556V222.5H282.891V215.556H281.001ZM280.875 214.506H283.017V212.91H280.875V214.506ZM284.72 212.784V222.5H286.61V212.784H284.72Z" fill="#123456"/>
<rect x="206" y="198.5" width="94" height="39" rx="8" stroke="#B0B4C1" stroke-miterlimit="0" stroke-linejoin="bevel"/>
</g>
<defs>
<clipPath id="clip0">
<rect width="1280" height="256" rx="8" fill="white"/>
</clipPath>
<clipPath id="clip1">
<rect width="252" height="152" fill="white" transform="translate(514 61)"/>
</clipPath>
<clipPath id="clip2">
<rect width="27" height="132" fill="white" transform="translate(972 113)"/>
</clipPath>
<clipPath id="clip3">
<rect width="27" height="132" fill="white" transform="translate(289 113)"/>
</clipPath>
</defs>
</svg>
