<svg xmlns="http://www.w3.org/2000/svg" xmlns:xlink="http://www.w3.org/1999/xlink" width="112" height="112" viewBox="0 0 112 112">
    <defs>
        <path id="i0f5znytza" d="M0 0.668L103.818 0.668 103.818 33.57 0 33.57z"/>
        <path id="fq4vxh048c" d="M0.789 0.128L32.849 0.128 32.849 40.133 0.789 40.133z"/>
    </defs>
    <g fill="none" fill-rule="evenodd">
        <g>
            <g>
                <g>
                    <g>
                        <path fill="#C0F1F3" d="M87.803 6.801c-4.966 0-9.154 3.34-10.454 7.892-.857-.273-1.767-.415-2.717-.415-3.505 0-6.537 1.978-8.051 4.874-.399.762.158 1.68 1.018 1.68h28.037c1.628 0 2.994-1.286 3.033-2.913.003-.087.004-.173.004-.261 0-5.996-4.863-10.857-10.87-10.857M30.346 34.882c-.031.325-.08.646-.149.967-.135.647-.314 1.323-.534 2.034-.094.367-.151.542-.17.525-1.151 3.379-3.265 6.948-6.528 8.307l-.37.148c-.715.251-1.462.392-2.22.413-.049.54-.092 1.087-.133 1.629-.449 5.34-.804 10.766-.931 15.885h-6.977l.406-6.194.035-.562c.306-4.87.61-9.763.888-14.45.19-2.972.32-5.079.392-6.32.028-.527.092-1.053.092-1.572-2.24-1.38-3.84-4.053-4.715-6.357-.48-1.125-.549-2.385-.191-3.556l.185-.463c.767-1.329 2.353-1.384 3.349 1.011.1.227.207.448.306.662l.213.42c.341.634.743 1.235 1.202 1.792.164-2.796.297-5.355.42-7.61.094-2.209.158-3.674.19-4.395.087-1.795.129-2.944.129-3.447.045-1.328.578-2.594 1.494-3.556l.305-.307c.655-.672 1.538-1.08 2.475-1.144.765-.039 1.524.163 2.169.575.17.082.24.124.213.13.754.63 1.322 1.791 1.571 3.832l.05.546c.018 2.076-.097 4.149-.349 6.21.98-1.216 1.778-2.566 2.368-4.012.144-.48.226-.699.25-.654.397-1.103.672-2.247.817-3.414.569-4.465 3.947-4.174 4.266-.347v1.458c-.476 4.692-2.736 11.498-8.297 12.863-.014.128-.05.256-.05.39-.079.747-.163 1.53-.255 2.327l-.05.674c-.208 1.87-.42 3.84-.64 5.889l-.073.632c-.226 2.112-.454 4.296-.667 6.528.619-.481 1.197-1.014 1.728-1.593l.334-.405c1.007-1.17 1.826-2.49 2.432-3.91l.235-.585c.246-.635.45-1.286.61-1.947.142-.656.394-1.28.747-1.85l.272-.37c1.37-1.577 3.276-.37 3.192 2.618l-.036.555z" transform="translate(-448 -636) translate(304 636) translate(144) translate(1.867 9.333)"/>
                        <g transform="translate(-448 -636) translate(304 636) translate(144) translate(1.867 9.333) translate(0 45.249)">
                            <mask id="3i2ykjwk6b" fill="#fff">
                                <use xlink:href="#i0f5znytza"/>
                            </mask>
                            <path fill="#57E3F3" d="M3.41 33.57c-2.982 0-4.528-3.733-2.47-5.993C9.958 17.665 24.316-1.97 60.041.963c21.533 1.77 36.491 17.904 43.066 26.886 1.715 2.343.13 5.721-2.691 5.721H3.41z" mask="url(#3i2ykjwk6b)"/>
                        </g>
                        <path fill="#FFF" d="M31.8 27.378L24.318 46.084 24.318 68.531 80.435 69.466 79.5 47.019 72.953 26.443z" transform="translate(-448 -636) translate(304 636) translate(144) translate(1.867 9.333)"/>
                        <path fill="#CDF9EB" d="M70.48 50.708h5.083c1.932 0 2.948 1.03 2.948 2.3v10.855c0 2.176-1.765 3.941-3.943 3.941H34.29c-1.08 0-1.643-1.286-.91-2.08l.702-.76c1.624-1.758 3.938-2.696 6.328-2.565 7.66.423 24.74.324 26.617-8.739.348-1.686 1.731-2.952 3.453-2.952" transform="translate(-448 -636) translate(304 636) translate(144) translate(1.867 9.333)"/>
                        <path fill="#7CF2CB" d="M34.346 45.867l1.647-7.181c.425-1.858 2.077-3.174 3.982-3.174h24.372c1.671 0 3.173 1.018 3.794 2.569l2.772 6.929-6.579 1.425s.88 13.771-12.418 13.771c-13.431 0-12.415-13.705-12.415-13.705l-5.155-.634z" transform="translate(-448 -636) translate(304 636) translate(144) translate(1.867 9.333)"/>
                        <path fill="#1B3453" d="M79.206 67.845c0 .184-.148.332-.331.332H24.959c-.183 0-.332-.148-.332-.332V47.394c0-.183.149-.332.332-.332h13.045c.175 0 .321.136.331.31.474 7.126 6.44 12.68 13.581 12.709 7.943.032 13.555-5.58 13.581-12.709.001-.175.158-.31.332-.31h13.046c.183 0 .331.149.331.332v20.451zM31.797 27.754c.048-.13.173-.213.31-.213h39.62c.136 0 .262.084.31.213l6.728 17.662c.039.103.026.218-.036.307-.062.09-.164.144-.274.144H64.93c-.32 0-.58.25-.596.568-.242 4.94-1.914 8.385-4.963 10.24-2.421 1.472-4.98 2.213-7.472 2.213-2.1 0-4.156-.526-6.043-1.584-3.908-2.19-6.342-6.33-6.355-10.802-.002-.356-.265-.635-.6-.635H25.38c-.11 0-.212-.054-.275-.144-.061-.09-.074-.204-.035-.307l6.728-17.662zm41.13-1.021c-.09-.232-.313-.387-.56-.387H31.465c-.247 0-.47.155-.559.385L23.47 46.252c-.019.055-.03.12-.032.185 0 .028-.007.07-.013.095l.008 22.243c0 .33.269.597.597.597h55.773c.329 0 .598-.268.598-.597v-22.31c-.008-.092-.019-.158-.041-.222l-7.433-19.51z" transform="translate(-448 -636) translate(304 636) translate(144) translate(1.867 9.333)"/>
                        <path fill="#FFF" d="M75.703 69.305s3.677 4.45 5.768 4.392M77.452 74.574s3.542 3.326 5.244 2.712" transform="translate(-448 -636) translate(304 636) translate(144) translate(1.867 9.333)"/>
                        <path fill="#FFF" d="M77.422 53.385c-1.729.392-1.813 4.198-.81 5.953 1.002 1.755 3.787 4.625 4.662 7.26.874 2.634-1.075 7.568 2.286 12.178 4.576 6.275 8.837 10.242 11.1 12.14 1.281 1.075 2.997 1.617 4.717 1.426 2.272-.25 5.323-1.314 7.306-4.89.548-.989.382-2.188-.402-3.034-1.724-1.86-5.539-8.154-5.539-8.154L97.103 63.79c-.295-1.012-.983-1.89-1.933-2.47l-10.776-6.559c-.955-.581-2.164-.68-3.214-.26l-.57.228s-1.236-1.789-3.188-1.345M87.701 64.917s-3.658-6.464-6.974-9.995" transform="translate(-448 -636) translate(304 636) translate(144) translate(1.867 9.333)"/>
                        <path fill="#FFF" d="M81.274 66.598c-.572-1.723-1.96-3.545-3.134-5.093-.793 1.421-3.51 6.497-2.503 7.66 1.175 1.356 1.523 1.715 1.523 1.715s-1.514 1.761.226 3.554c0 0-.342 1.958.789 2.835 1.13.877 4.347 2.746 4.347 2.746s.805.733 1.877-.11c-.278-.368-.558-.745-.839-1.13-3.36-4.609-1.412-9.542-2.286-12.177M76.612 59.338c-.425-.742-.651-1.85-.644-2.914-1.05.634-2.71 1.787-2.829 2.801-.077.658.335 3.662 4.828 2.052-.551-.728-1.041-1.388-1.355-1.939M63 45.78c-7.868 0-14.246-6.377-14.246-14.246 0-7.868 6.378-14.247 14.246-14.247s14.248 6.379 14.248 14.247c0 7.869-6.38 14.247-14.248 14.247m0-31.343c-9.441 0-17.096 7.654-17.096 17.096S53.56 48.63 63 48.63c9.443 0 17.096-7.654 17.096-17.096S72.443 14.438 63 14.438" transform="translate(-448 -636) translate(304 636) translate(144) translate(1.867 9.333)"/>
                        <path fill="#1B3453" d="M63.207 18.039c-6.98 0-12.963 5.325-13.64 12.41-.347 3.641.748 7.203 3.082 10.03 2.336 2.827 5.627 4.576 9.266 4.923 3.641.347 7.203-.748 10.03-3.082 2.828-2.336 4.577-5.626 4.923-9.267l.507.049-.507-.049c.348-3.64-.747-7.201-3.082-10.028-2.336-2.827-5.627-4.576-9.267-4.924-.44-.042-.878-.062-1.312-.062m.032 28.445c-.471 0-.946-.022-1.42-.068-3.911-.372-7.447-2.251-9.955-5.288-2.507-3.037-3.683-6.864-3.311-10.776.772-8.086 7.967-14.04 16.064-13.265 8.086.772 14.036 7.977 13.266 16.064-.373 3.91-2.251 7.446-5.29 9.954-2.667 2.203-5.945 3.38-9.354 3.38M74.425 45.577l-.642-.791c.312-.252.604-.49.88-.747l.007-.006.694.745c-.3.28-.62.54-.939.8" transform="translate(-448 -636) translate(304 636) translate(144) translate(1.867 9.333)"/>
                        <path fill="#1B3453" d="M63.21 18.04c-7.314 0-13.405 5.8-13.694 13.173-.297 7.556 5.608 13.943 13.165 14.24 7.517.307 13.942-5.608 14.239-13.163.296-7.556-5.608-13.944-13.164-14.24-.181-.007-.364-.01-.545-.01m.015 28.444c-.195 0-.39-.005-.585-.012-8.119-.32-14.461-7.182-14.142-15.299.318-8.116 7.176-14.441 15.297-14.142 8.116.32 14.46 7.182 14.141 15.299-.31 7.92-6.853 14.154-14.711 14.154m-.017-31.537c-8.964 0-16.427 7.11-16.782 16.146-.176 4.477 1.407 8.76 4.458 12.06 3.05 3.3 7.196 5.214 11.673 5.39 2.418.099 4.79-.333 7.056-1.273.366-.15.733-.303 1.088-.48.066-.033.131-.07.196-.108l.186-.104c.348-.186.697-.372 1.03-.58.063-.04.125-.085.186-.128l.176-.123c.327-.216.653-.433.963-.672.062-.046.119-.096.176-.146l.17-.144c.311-.253.606-.493.885-.752 3.268-3.047 5.164-7.174 5.339-11.622.363-9.258-6.873-17.087-16.133-17.45-.222-.01-.445-.014-.667-.014m.007 34.628c-.233 0-.464-.005-.698-.014-4.75-.187-9.146-2.217-12.381-5.717-3.235-3.499-4.914-8.042-4.728-12.791.186-4.75 2.216-9.148 5.716-12.383 3.5-3.235 8.05-4.907 12.792-4.728 9.82.386 17.495 8.69 17.11 18.509-.186 4.719-2.197 9.096-5.663 12.327-.293.275-.607.53-.92.784l-.16.136c-.073.063-.146.127-.223.186-.329.252-.675.482-1.022.713l-.147.102c-.078.055-.156.11-.236.16-.355.223-.724.42-1.094.618l-.156.087c-.083.048-.165.095-.25.138-.374.186-.762.349-1.152.51-2.185.906-4.465 1.363-6.788 1.363M76.273 48.709l-.784-.65c.045-.09.066-.13.089-.169l.873.525-.026.051c-.034.066-.076.153-.152.243" transform="translate(-448 -636) translate(304 636) translate(144) translate(1.867 9.333)"/>
                        <path fill="#FFF" d="M77.422 53.432c.493-.122.939-.088 1.333.03l-3.094-5.603c-.043.138-3.685 1.92-3.799 1.9l4.15 6.224c.131-1.268.575-2.345 1.41-2.551" transform="translate(-448 -636) translate(304 636) translate(144) translate(1.867 9.333)"/>
                        <path fill="#1B3453" d="M72.613 49.967l3.141 4.71c.305-.959.835-1.564 1.546-1.74.179-.044.358-.072.537-.084L75.46 48.55c-.77.462-2.016 1.064-2.847 1.417zm3.762 7.477l-5.597-8.395 1.046.186c.543-.223 2.844-1.354 3.4-1.687l.306-.98 4.273 7.737-1.194-.355c-.355-.107-.703-.114-1.065-.023-.511.126-.904.934-1.024 2.109l-.145 1.408zM80.436 54.501L80.399 54.217 80.956 54.496 81.548 55.381M77.813 70.855c1.316 1.286 2.454 2.1 3.232 2.316-.097-1.132-.07-2.207-.045-3.175.034-1.305.062-2.432-.213-3.262-.107-.32-.263-.68-.491-1.13-.05-.096-.106-.195-.16-.294-.19-.34-.353-.619-.528-.894l-.234-.364c-.215-.323-.438-.642-.665-.955l-.121-.17-.378-.508c-1.953 3.638-2.583 5.984-2.174 6.455 1.144 1.32 1.502 1.69 1.504 1.695l.276.283-.003.003zm.105 3.486c1.142 1.047 2.896 2.303 3.996 2.515-.383-.912-.613-1.821-.75-2.707-1.017-.128-2.327-.958-3.91-2.473-.245.55-.418 1.487.512 2.446l.162.166-.01.053zm-.04 1.256c.063.492.234 1.011.625 1.314 1.092.845 4.258 2.69 4.29 2.71l.087.062c.086.072.374.26.803.094-.181-.244-.363-.49-.545-.74-.275-.377-.526-.779-.764-1.22-1.426.09-3.382-1.296-4.497-2.22zm5.476 5.184c-.503 0-.912-.2-1.145-.393-.394-.23-3.274-1.918-4.362-2.76-1.101-.854-1.052-2.457-.992-3.046-1.206-1.38-.845-2.83-.345-3.647l-.06-.061.02-.019c-.235-.26-.624-.696-1.23-1.397-1.062-1.224.744-5.117 2.447-8.167l.386-.691.485.637c.284.373.58.765.874 1.167l.125.173c.234.322.463.65.684.983.063.093.123.189.183.283l.063.098c.186.293.358.586.522.88.093.17.153.275.208.382.25.495.423.893.544 1.258.323.974.293 2.17.257 3.557-.055 2.162-.118 4.61 1.108 7.072l.002.003c.264.529.544.995.855 1.422.28.383.557.757.834 1.123l.263.348-.351.275c-.49.386-.963.52-1.375.52z" transform="translate(-448 -636) translate(304 636) translate(144) translate(1.867 9.333)"/>
                        <path fill="#1B3453" d="M75.489 57.407c-.007-.08-.012-.159-.015-.238-.003-.076-.005-.151-.006-.228v-.01l1.017-.018c.001.063.003.124.006.187.003.077.008.154.013.232l-1.015.075zM77.49 62.213c-.184-.265-.352-.513-.516-.76l.846-.567c.16.24.329.488.507.746l-.836.581z" transform="translate(-448 -636) translate(304 636) translate(144) translate(1.867 9.333)"/>
                        <path fill="#F2E5CD" d="M95.684 65.015c-.764-1.155-2.678-.658-2.663.692.031 2.97-1.062 6.581-6.24 7.526-8.787 1.604 7.639 15.486 9.088 16.695.077.063.141.105.232.151 1.078.534 8.518 3.844 10.645-5.471.18-.789-1.046-2.35-1.587-2.986-1.518-1.78-3.686-4.805-4.436-5.686-.108-.127-.183-.265-.234-.419-.387-1.183-2.245-6.632-4.805-10.502" transform="translate(-448 -636) translate(304 636) translate(144) translate(1.867 9.333)"/>
                        <path fill="#1B3453" d="M81.434 74.166c-2.287 0-5.746-4.105-6.136-4.577l.81-.568c1.351 1.635 3.98 4.208 5.318 4.208l.028-.001.032.938h-.052M82.24 77.827c-1.928 0-4.588-2.394-5.153-2.925l.727-.656c1.374 1.287 3.726 2.949 4.698 2.604l.37.872c-.2.073-.416.105-.642.105" transform="translate(-448 -636) translate(304 636) translate(144) translate(1.867 9.333)"/>
                        <g transform="translate(-448 -636) translate(304 636) translate(144) translate(1.867 9.333) translate(74.667 52.715)">
                            <mask id="t9v6zwasad" fill="#fff">
                                <use xlink:href="#fq4vxh048c"/>
                            </mask>
                            <path fill="#1B3453" d="M5.514 2.267c-.038-.055-.857-1.2-2.14-1.2-.159 0-.324.019-.496.058-.277.062-.512.29-.7.676-.572 1.17-.466 3.406.218 4.604.337.59.913 1.35 1.524 2.154 1.21 1.597 2.583 3.407 3.174 5.186.324.976.291 2.172.254 3.56-.067 2.488-.15 5.587 1.968 8.494 4.591 6.297 8.876 10.256 11.022 12.056 1.193 1 2.759 1.477 4.312 1.307 2.11-.233 5.02-1.226 6.911-4.638.456-.82.324-1.807-.333-2.516-1.738-1.876-5.44-7.973-5.597-8.231l-.048-.107-3.639-12.473c-.262-.902-.874-1.683-1.722-2.2L9.446 2.438c-.813-.496-1.834-.579-2.73-.221M24.03 40.134c-1.592 0-3.154-.56-4.378-1.586-2.18-1.829-6.53-5.848-11.18-12.227-2.3-3.155-2.212-6.417-2.142-9.04.036-1.305.066-2.432-.209-3.261-.544-1.64-1.868-3.384-3.037-4.924-.628-.83-1.221-1.612-1.59-2.255-.83-1.455-.945-3.99-.245-5.425C1.652.592 2.224.307 2.633.215c1.741-.397 2.963.66 3.475 1.223l.203-.082c1.212-.481 2.594-.371 3.698.3l10.776 6.56c1.054.642 1.815 1.615 2.145 2.738l3.622 12.417c.364.598 3.858 6.31 5.45 8.027.927 1 1.11 2.394.467 3.553-2.095 3.778-5.343 4.882-7.699 5.141-.246.028-.494.042-.74.042" mask="url(#t9v6zwasad)"/>
                        </g>
                        <path fill="#1B3453" d="M86.314 64.198c-.036-.063-3.67-6.457-6.908-9.905l.77-.613c3.317 3.531 6.891 9.82 7.042 10.085l-.904.433zM78.21 62.419c-1.952 3.637-2.583 5.984-2.174 6.455 1.144 1.32 1.502 1.69 1.505 1.695l.285.294-.266.309c-.049.057-1.218 1.482.206 2.95l.161.166-.037.22c-.082.473-.129 1.828.612 2.403 1.092.845 4.26 2.69 4.292 2.71l.086.062c.087.072.374.26.802.094l-.545-.74c-2.3-3.155-2.212-6.419-2.14-9.04.035-1.305.065-2.433-.21-3.262-.474-1.427-1.538-2.934-2.577-4.316m5.144 18.362c-.502 0-.912-.2-1.144-.393-.395-.23-3.275-1.918-4.363-2.76-1.1-.854-1.053-2.456-.992-3.046-1.217-1.392-.842-2.852-.33-3.667-.229-.251-.628-.7-1.286-1.457-1.06-1.224.745-5.117 2.448-8.167l.387-.692.483.638c1.24 1.633 2.614 3.443 3.204 5.224.323.974.29 2.172.254 3.559-.068 2.489-.15 5.588 1.968 8.495.279.383.558.757.834 1.123l.263.348-.351.275c-.49.386-.964.52-1.375.52" transform="translate(-448 -636) translate(304 636) translate(144) translate(1.867 9.333)"/>
                        <path fill="#1B3453" d="M75.501 57.295c-1.119.767-1.797 1.485-1.856 1.98-.023.208.032 1.152.749 1.656.594.42 1.548.455 2.773.107-.395-.533-.753-1.04-1.006-1.482-.337-.589-.568-1.397-.66-2.261m.164 4.92c-.749 0-1.382-.18-1.892-.54-1.086-.766-1.192-2.064-1.14-2.5.108-.926 1.137-1.984 3.056-3.143l.794-.48-.005.875c-.008 1.016.217 2.048.585 2.694.305.533.8 1.197 1.322 1.888l.37.488-.604.215c-.933.335-1.764.503-2.486.503" transform="translate(-448 -636) translate(304 636) translate(144) translate(1.867 9.333)"/>
                        <path fill="#48F6BB" d="M52.099 0c.524 0 .95.425.95.95V9.1c0 .525-.426.95-.95.95-.525 0-.95-.425-.95-.95V.95c0-.525.425-.95.95-.95M32.641 4.215c.177 0 .356.05.517.153l6.544 4.248c.44.285.566.873.28 1.314-.285.44-.873.566-1.313.28l-6.546-4.248c-.44-.286-.565-.874-.279-1.314.181-.28.487-.433.797-.433M70.272 4.215c.31 0 .616.153.797.433.286.44.16 1.028-.28 1.314l-6.545 4.247c-.44.286-1.028.16-1.313-.279-.286-.44-.162-1.029.279-1.314l6.545-4.248c.16-.103.34-.153.517-.153" transform="translate(-448 -636) translate(304 636) translate(144) translate(1.867 9.333)"/>
                        <path fill="#FFF" d="M72.677 50.27l2.68-1.451c.208-.112.382-.264.525-.436.057-.07.087-.154.133-.23.315-.522.387-1.177.08-1.746l-1.055-2.02c-.007.007-.015.011-.023.019-.292.272-.602.523-.913.775-.12.097-.231.205-.354.298-.32.246-.656.47-.992.693-.126.084-.245.176-.373.256-.344.216-.704.408-1.063.6-.132.07-.258.15-.393.218-.365.182-.74.339-1.12.495-.13.055-.257.12-.39.172l.847 1.619c.335.622.997.96 1.664.931.05-.002.099-.008.147-.015.205-.026.409-.075.6-.178" transform="translate(-448 -636) translate(304 636) translate(144) translate(1.867 9.333)"/>
                        <path fill="#1B3453" d="M70.124 48.162l.592 1.135c.227.419.678.68 1.192.658l.104-.012c.178-.023.311-.061.423-.122l2.679-1.45c.139-.075.265-.18.377-.314.043-.089.064-.129.087-.167.244-.404.27-.868.069-1.242l-.759-1.45c-.153.128-.307.254-.463.38l-.14.12c-.075.063-.147.127-.224.185-.329.253-.675.483-1.022.713l-.147.103c-.078.055-.155.11-.236.16-.355.223-.724.42-1.094.618l-.156.087c-.082.048-.165.095-.25.138-.336.168-.683.315-1.032.46m1.724 2.812c-.845 0-1.634-.463-2.032-1.2l-1.111-2.13.532-.206c.063-.024.126-.054.187-.083l.19-.085c.366-.15.733-.303 1.088-.48.066-.033.13-.07.196-.109l.187-.103c.346-.186.695-.372 1.03-.58.063-.04.124-.085.185-.129l.176-.122c.327-.216.654-.433.963-.672.062-.046.119-.096.176-.146l.17-.144c.3-.243.6-.487.885-.752l.489-.457.332.575 1.055 2.02c.371.688.336 1.53-.096 2.245-.06.116-.103.202-.174.29-.197.237-.425.425-.678.562l-2.68 1.45c-.22.12-.474.197-.774.235-.065.009-.13.016-.194.019-.035.002-.068.002-.102.002" transform="translate(-448 -636) translate(304 636) translate(144) translate(1.867 9.333)"/>
                    </g>
                </g>
            </g>
        </g>
    </g>
</svg>
