<svg xmlns="http://www.w3.org/2000/svg" width="64" height="24" fill="none" viewBox="0 0 64 24">
    <g opacity=".3">
        <path fill="#123456" fill-rule="evenodd" d="M5.146 19.602c.724.458 1.682.242 2.14-.48l3.948-6.244h-.002l.003-.005.003-.005.024-.04c.014-.024.024-.046.034-.07.006-.01.012-.02.016-.03.004-.012.01-.022.016-.032l.011-.03.017-.044c.006-.014.01-.026.014-.04l.007-.018.003-.008c.008-.024.014-.048.02-.072.006-.016.01-.032.012-.048l.005-.016.003-.01.012-.068.005-.027.005-.027.003-.027.001-.005.002-.03.002-.028.002-.03.002-.028v-.04l.001-.012.001-.012v-.015l-.002-.015c0-.018 0-.036-.002-.052 0-.016 0-.034-.002-.048l-.006-.056-.006-.044-.003-.023-.005-.03-.012-.053c0-.007-.002-.014-.004-.021l-.004-.021c-.006-.016-.01-.032-.014-.048l-.008-.027-.008-.027-.008-.023-.008-.023c-.006-.014-.012-.028-.016-.042-.008-.016-.014-.032-.02-.05l-.013-.027-.013-.027-.018-.034c-.006-.014-.012-.028-.02-.04-.012-.024-.026-.046-.04-.068l-.006-.014L7.27 5.006h-.002c-.466-.702-1.408-.908-2.124-.456-.716.454-.934 1.394-.498 2.114l-.002.002 2.44 3.858H2.52v.002c-.842.016-1.52.704-1.52 1.55 0 .846.678 1.534 1.52 1.552h4.564l-2.422 3.834c-.458.724-.24 1.682.484 2.14zm7.524-5.974h4.566c.842-.018 1.52-.706 1.52-1.552 0-.846-.678-1.532-1.52-1.55v-.002H12.67l2.424-3.834c.456-.724.24-1.682-.484-2.138-.724-.458-1.682-.244-2.14.48l-1.984 3.134 1.952 3.084.006.012c.014.022.028.044.04.068l.005.012.015.028.018.034.01.021.016.035.018.048c.006.014.012.028.016.042l.018.046.007.027.007.027c.006.016.01.032.014.048.004.014.008.028.01.042l.012.054c.002.018.004.036.008.052l.006.044c.002.018.004.036.004.056.002.016.004.032.004.048.002.016.002.034.002.052v.015l.002.015-.001.012-.001.012v.045c-.003.018-.004.034-.004.053l-.006.058-.002.016-.002.016-.004.027-.004.027c-.004.024-.008.046-.014.068l-.006.026-.012.048-.01.036-.01.036c-.004.01-.008.018-.01.026l-.012.03-.004.01c-.008.024-.016.048-.028.074l-.01.02-.006.012c-.004.01-.008.02-.014.03l-.025.052-.01.018-.023.04-.006.01h.002l-1.966 3.11 1.998 3.16v-.002c.466.702 1.41.908 2.126.456.714-.452.932-1.392.498-2.114h.002l-2.442-3.86z" clip-rule="evenodd"/>
        <path fill="#fff" d="M7.286 19.122l.212.134-.212-.134zm-2.14.48l-.133.211.133-.211zm6.088-6.724l.212.133.242-.383h-.454v.25zm-.002 0l-.223-.112-.181.362h.404v-.25zm.003-.005l-.208-.139.208.139zm.003-.005l-.217-.124-.006.012.223.112zm.024-.04l.208.139.005-.007.003-.006-.216-.126zm.034-.07l-.214-.129-.01.016-.006.017.23.096zm.016-.03l.232.093.003-.007.003-.007-.238-.08zm.016-.032l.215.129.01-.02.009-.02-.234-.09zm.011-.03l.235.086-.235-.086zm.017-.044l-.23-.099v.003l.23.096zm.014-.04l.24.069.003-.008-.243-.061zm.007-.018l-.23-.098.23.098zm.003-.008l.232.093.003-.007.003-.007-.238-.08zm.02-.072l-.234-.088-.005.013-.003.014.242.06zm.012-.048l-.245-.05-.002.01v.009l.247.03zm.005-.016l-.235-.084.235.084zm.003-.01l.243.06.002-.008.002-.009-.247-.043zm.012-.068l-.244-.054-.002.01.246.044zm.005-.027l.247.04-.247-.04zm.005-.027l.244.054.006-.027v-.027h-.25zm.003-.027l.247.042-.247-.042zm.001-.005l.247.04.002-.012-.249-.028zm.002-.03l.25.014-.25-.013zm.002-.028l-.248-.025.248.025zm.004-.058l.25.025v-.025h-.25zm-.002-.146h-.25v.015l.002.016.248-.031zm-.002-.048l-.249.025.002.01.247-.035zm-.006-.056l.249-.028-.001-.008-.248.036zm-.006-.044l-.248.03.248-.03zm-.003-.023l-.247.042.247-.042zm-.005-.03l.249-.027-.002-.013-.003-.013-.244.054zm-.012-.053l-.247.035.001.01.002.01.244-.055zm-.008-.042l.248-.036-.004-.026-.01-.026-.234.088zm-.014-.048l.243-.06-.002-.01-.003-.01-.238.08zm-.008-.027l-.24.067.24-.067zm-.008-.027l.238-.08-.004-.008-.234.088zm-.008-.023l.238-.08-.238.08zm-.008-.023l.235-.088-.005-.01-.23.098zm-.016-.042l.24-.069-.006-.022-.01-.021-.224.112zm-.02-.05l.238-.08-.004-.01-.005-.012-.229.102zm-.013-.027l.224-.112-.224.112zm-.013-.027l.23-.102-.006-.01-.224.112zm-.018-.034l-.23.098.007.016.009.014.214-.128zm-.02-.04l-.223.112.007.014.008.013.208-.14zm-.04-.068l-.223.112.006.011.007.011.21-.134zm-.006-.014l.238-.08-.01-.028-.016-.026-.212.134zM7.27 5.006l.212-.134-.074-.116H7.27v.25zm-.002 0l-.208.138.074.112h.134v-.25zM5.144 4.55l-.133-.212.133.212zm-.498 2.114l.177.177.139-.139-.102-.168-.214.13zm-.002.002l-.176-.177-.142.141.107.17.211-.134zm2.44 3.858v.25h.454l-.242-.384-.212.134zm-4.564 0v-.25h-.25v.25h.25zm0 .002l.005.25.245-.005v-.245h-.25zm0 3.102l-.005.25h.005v-.25zm4.564 0l.212.133.242-.383h-.454v.25zm-2.422 3.834l.212.134-.212-.134zm12.574-3.834v.25h.005l-.005-.25zm-4.566 0v-.25h-.454l.242.383.212-.133zm4.566-3.102h-.25v.244l.244.006.006-.25zm0-.002h.25v-.25h-.25v.25zm-4.566 0l-.212-.134-.242.384h.454v-.25zm2.424-3.834l.21.133h.001l-.211-.133zm-.484-2.138l-.134.21v.001l.134-.211zm-2.14.48l.21.133-.21-.133zm-1.984 3.134l-.212-.134-.084.134.084.133.212-.133zm1.952 3.084l.223-.112-.005-.011-.007-.011-.211.134zm.006.012l-.224.111.006.012.007.01.21-.133zm.045.08l.226-.107-.226.107zm.015.028l-.217.124.002.004.215-.128zm.018.034l.223-.112-.223.112zm0 0l.228-.102-.005-.01-.223.112zm.01.021l-.225.11.225-.11zm.016.035l.234-.088-.002-.005-.232.093zm.018.048l-.235.088.005.01.23-.098zm.016.042l-.24.068.001.008.003.007.236-.083zm0 0l-.236.083.002.005.234-.088zm.018.046l.244-.055-.005-.022-.01-.022-.23.099zm.007.027l.24-.067-.24.067zm.007.027l-.244.054.003.017.007.016.234-.087zm.014.048l.242-.061-.242.06zm0 0l-.243.06.002.008.24-.068zm.01.042l-.248.035.002.01.002.009.244-.054zm.012.054l.248-.028-.001-.013-.003-.014-.244.055zm.008.052l.248-.031-.002-.015-.004-.015-.242.06zm.006.044l.248-.028v-.008l-.248.036zm.004.056h-.25v.015l.002.016.248-.031zm.004.048h-.25v.015l.002.016.248-.031zm.003.094l.248.03-.248-.03zm-.001.052l.248.025.002-.013v-.012h-.25zm0 .005l.248.025-.249-.025zm-.004.053l.248.024.002-.012v-.012h-.25zm-.006.058l.247.04.001-.013-.248-.027zm-.002.016l.249.023-.25-.023zm-.002.016l-.245-.05-.003.011v.011l.248.028zm-.004.027l-.247-.041.247.04zm-.004.027l.247.04.001-.013-.248-.027zm-.014.068l-.242-.066-.002.008-.002.009.246.049zm-.006.026l.242.06.003-.011-.245-.05zm-.012.048l.237.079.003-.01.002-.009-.242-.06zm-.01.036l-.243-.061.243.06zm-.01.036l.232.093.002-.007.003-.007-.237-.08zm-.01.026l.24.068.002-.008-.242-.06zm-.012.03l.228.101-.228-.1zm-.004.01l-.23-.099-.004.01-.004.01.238.079zm-.028.074l-.228-.105-.005.012.233.093zm-.01.02l-.221-.117.22.117zm-.006.012l-.224-.112-.005.01-.004.009.233.093zm-.014.03l-.215-.129-.01.016-.006.017.23.096zm-.025.052l-.223-.114.223.114zm-.01.018l.209.138.008-.013.007-.014-.223-.111zm-.023.04l-.218-.125-.006.013.224.112zm0 0l.223.111-.223-.111zm-.006.01l-.177-.177-.427.427h.604v-.25zm.002 0l.21.133.243-.383h-.453v.25zm-1.966 3.11l-.212-.134-.084.134.084.133.212-.133zm1.998 3.16l-.212.133.462.73v-.863h-.25zm0-.002l.208-.139-.458-.69v.829h.25zm2.126.456l.133.211-.133-.211zm.498-2.114v-.25h-.442l.227.378.215-.128zm.002 0v.25h.454l-.243-.384-.211.134zm-8.037 1.5c-.384.605-1.188.787-1.795.403l-.267.422c.84.532 1.953.281 2.484-.557l-.422-.268zm3.948-6.244l-3.948 6.244.423.267 3.948-6.244-.423-.267zm.21.384h.001v-.5h-.002v.5zm-.206-.394c0 .002-.01.015-.018.032l.447.224-.013.021-.416-.277zm-.012.022l.012-.022.416.277c.001 0 .01-.014.019-.031l-.447-.224zm.04-.067c-.014.02-.027.043-.034.055l.434.248.015-.026-.416-.277zm.01-.027c-.007.019-.012.03-.018.04l.431.252c.022-.038.037-.071.05-.1l-.462-.192zm.015-.027l.006-.013v.002l-.004.005.429.258c.003-.007.02-.034.034-.066l-.465-.186zm.034-.068c-.004.008-.025.04-.039.082l.475.158-.009.02v.002l.002-.005-.429-.257zm-.01.014l-.009.025.467.18.012-.034-.47-.171zm.022-.055c-.009.02-.016.04-.021.055l.47.171.012-.034-.461-.192zm.004-.013l-.002.007-.001.003.46.197c.01-.026.018-.048.024-.07l-.481-.137zm.017-.047c-.001.003-.012.027-.02.055l.486.121-.006.02-.001.003v-.003l-.46-.196zm.001-.003l-.001.003.46.196.006-.013-.465-.186zm.01-.04c-.006.026-.01.04-.015.054l.475.158c.011-.035.02-.068.025-.09l-.485-.122zm.006-.018c0-.005.002-.008.002-.009l.468.176c.013-.034.022-.069.027-.105l-.497-.062zm.018-.069c-.002.003-.01.025-.015.05l.49.099-.004.017c0 .003-.002.005 0 .002l-.471-.168zm-.004.013l.003-.012c.001-.002.001-.003 0 0l.472.167c0-.001.006-.016.01-.034l-.485-.12zm.008-.05l-.012.067.493.087.012-.068-.493-.087zm.005-.025l-.003.014.488.108.008-.04-.493-.082zm.007-.04l-.007.04.493.082.002-.014-.488-.108zm.001-.015c0 .005-.007.035-.007.069h.5v.019c0 .001-.001.002 0 0v-.004l-.493-.084zm0-.004v.004l.493.084.001-.006-.493-.082zm0 0v.01l-.001.003.497.056.003-.044-.5-.026zm.003-.042l-.003.041.5.026v-.017l-.497-.05zm0-.017v.017l.497.05.003-.041-.5-.026zm.004-.041l-.003.04.5.027v-.017l-.497-.05zm-.002-.015v.04h.5v-.04h-.5zm.003-.043c0 .001-.003.02-.003.043h.5V12.119l-.497-.062zm0 .019v-.018-.001l.496.062c0-.001.003-.021.003-.043h-.5zm0 .01V12.076h.5c0-.02-.003-.037-.003-.04l-.497.05zm-.003-.04c0 .02.002.037.003.04l.497-.05v-.001.01h-.5zm0-.021v.021h.5c0-.014 0-.049-.004-.083l-.496.062zm-.001-.044v-.006V11.994h.5c0-.01 0-.048-.005-.083l-.495.07zm-.007-.063l.006.053.497-.05-.006-.059-.497.056zm-.006-.041l.007.048.495-.07-.005-.04-.497.062zm-.002-.012l.002.01v.002l.497-.062-.006-.034-.493.084zm-.006-.044l.006.044.493-.084-.002-.011v-.003l-.497.054zm-.008-.027l.012.054.488-.108-.012-.054-.488.108zm-.004-.023l.001.006v-.002l.495-.07c-.002-.018-.006-.033-.007-.039l-.49.105zm-.007-.038c.002.017.006.033.007.038l.489-.105-.002-.006v.002l-.494.071zm-.01-.023c.004.014.011.044.023.076l.469-.176-.002-.004-.004-.017-.485.121zm-.005-.02l.011.039.475-.158-.005-.015-.481.134zm-.005-.015l.005.015.481-.134-.011-.04-.475.159zm-.008-.023l.011.032.468-.176-.004-.014-.475.158zm-.005-.014l.005.014.475-.158-.011-.032-.469.176zm-.022-.062c.01.032.022.061.027.072l.46-.197-.007-.014v.002l-.48.137zm-.017-.04c.008.024.018.053.034.084l.447-.224-.006-.017-.475.158zm0 .007l.009.016.457-.203-.018-.037-.447.224zm-.017-.038l.018.038.447-.224-.008-.017-.457.203zm-.004-.007l.002.004.007.014.447-.224c-.005-.01-.015-.03-.027-.05l-.429.256zm-.014-.03l-.006-.01.001.002.004.008.46-.197c-.005-.01-.02-.045-.043-.08l-.416.277zm-.042-.072c.014.024.022.035.027.046l.447-.224c-.019-.037-.04-.07-.053-.09l-.421.268zm-.033-.07c.008.025.017.042.02.048l.447-.224.002.004.006.015-.475.158zM7.06 5.14l3.948 6.243.423-.268-3.948-6.242-.423.267zm.21.117h.001v-.5h-.002v.5zM5.277 4.76c.6-.379 1.39-.206 1.782.383l.417-.276c-.541-.815-1.634-1.055-2.466-.53l.267.423zM4.86 6.534c-.365-.603-.183-1.392.418-1.773l-.267-.422c-.832.527-1.085 1.618-.578 2.454l.427-.259zm-.039.309l.002-.002-.353-.354-.002.002.353.354zm2.475 3.547l-2.44-3.858-.423.267 2.44 3.859.423-.268zm-4.776.384h4.564v-.5H2.52v.5zm.25-.248v-.002h-.5v.002h.5zm-1.52 1.55c0-.71.57-1.287 1.275-1.3l-.01-.5c-.977.018-1.765.817-1.765 1.8h.5zm1.276 1.302c-.707-.015-1.276-.593-1.276-1.302h-.5c0 .982.788 1.78 1.765 1.802l.01-.5zm4.558 0H2.52v.5h4.564v-.5zm-2.21 4.217l2.422-3.834-.423-.267-2.422 3.834.423.267zm.406 1.796c-.608-.385-.79-1.189-.406-1.795l-.423-.268c-.532.841-.278 1.954.562 2.485l.267-.422zm11.956-6.013H12.67v.5h4.566v-.5zm1.27-1.302c0 .71-.57 1.287-1.276 1.302l.01.5c.978-.021 1.766-.82 1.766-1.802h-.5zm-1.276-1.3c.707.015 1.276.59 1.276 1.3h.5c0-.983-.788-1.78-1.765-1.8l-.01.5zm-.244-.252v.002h.5v-.002h-.5zm-4.316.25h4.566v-.5H12.67v.5zm2.212-4.218l-2.424 3.834.423.267 2.424-3.834-.423-.267zm-.406-1.793c.607.382.789 1.186.406 1.793l.423.267c.53-.84.279-1.953-.562-2.483l-.267.423zm-1.795.402c.384-.607 1.187-.787 1.795-.402l.267-.423c-.84-.531-1.953-.283-2.485.558l.423.267zM10.697 8.3l1.984-3.134-.423-.267-1.984 3.134.423.267zm1.952 2.817l-1.952-3.084-.423.267 1.952 3.084.423-.267zm.018.034l-.006-.012-.447.223.006.012.447-.223zm.04.068c-.019-.037-.04-.07-.053-.09l-.421.268c.015.023.022.035.027.045l.447-.223zm.008.017l-.008-.017-.447.223.004.008.451-.214zm.006.01l-.001-.001-.005-.01-.451.215c.003.008.012.026.023.045l.434-.248zm.024.047c-.005-.01-.015-.031-.027-.051l-.429.257.002.004.007.013.447-.223zm0 0l-.447.223.447-.223zm.012.024l-.007-.014-.457.203.014.03.45-.22zm.023.05l-.023-.05-.45.22.006.012.002.005.465-.186zm.02.054l-.018-.048-.469.175.018.048.469-.175zm.022.061c-.01-.032-.022-.06-.027-.072l-.46.197.007.014v-.002l.48-.137zm-.005-.014l-.471.166.471-.166zm.012.03l-.013-.035-.469.175.023.057.46-.197zm.018.059l-.003-.015-.488.109.01.04.482-.134zm.01.04c-.003-.017-.007-.032-.01-.04l-.481.134.004.014.488-.109zm.013.041c-.003-.014-.01-.044-.022-.075l-.469.175.002.004.004.017.485-.121zm0 0l-.485.121.485-.121zm.015.067c-.005-.034-.014-.064-.017-.075l-.48.137.003.013v-.004l.494-.07zm.009.035l-.012-.054-.488.109.012.054.488-.109zm.006.046c.001.003 0 .004 0 0s0-.01-.002-.019l-.497.055c.002.014.005.05.014.085l.485-.121zm.011.07l-.005-.04-.497.062.007.048.495-.07zm.007.09c0-.035-.004-.066-.006-.083l-.497.055.003.029h.5zm.004.049c0-.034-.005-.066-.006-.08l-.497.063.002.016c0 .003 0 .003 0 0h.5zm.002.052c0-.014 0-.049-.004-.083l-.496.062v.021h.5zm0-.01v-.002.012h-.5l.002.04.497-.05zm.002.04c0-.02-.002-.037-.003-.04l-.497.05c0 .002 0 .002 0 0v-.01h.5zm-.003.043c0-.002.003-.021.003-.043h-.5v-.018-.001l.497.062zm0-.02V12.12l-.496-.062c0 .001-.003.02-.003.043h.5zm0 .04v-.04h-.5v.04h.5zm-.001.03v-.004l-.497-.05v.005l.497.05zm-.002.029v-.008l.002-.02-.498-.05c-.001.016-.004.045-.004.078h.5zm-.008.085l.006-.06-.497-.05-.006.055.497.055zm-.001.012v.002l-.494-.082c-.003.015-.004.029-.004.033l.498.047zm-.006.042c.004-.02.005-.038.006-.042l-.498-.047v.002c0-.002 0-.006.002-.011l.49.098zm-.003.019l.006-.04-.497-.056v.003l-.002.01.493.083zm-.002.013v-.003l.002-.01-.493-.082-.006.04.497.055zm-.021.106c.01-.034.015-.067.02-.092l-.494-.082c-.004.022-.006.034-.009.043l.483.131zm-.002.01v-.002l.006-.024-.49-.098v.001l-.007.025.49.098zm-.015.06l.012-.049-.485-.121-.012.048.485.121zm-.01.035l.003-.013.002-.004-.475-.158-.015.054.485.121zm-.015.055l.015-.055-.485-.121-.003.013-.002.005.475.158zm-.005.007l-.005.017-.001.004-.001.002v-.001l.002-.003c0-.003.003-.008.005-.012l-.465-.186v.002l-.004.01c-.003.007-.01.024-.016.046l.485.121zm-.026.071c.004-.008.015-.033.024-.063l-.48-.137c0-.005.002-.008.002-.009v.001l-.003.006.457.202zm-.003.007l.003-.007-.457-.202-.005.012.46.197zm-.03.08c.018-.04.03-.076.038-.1l-.475-.157-.017.048.454.21zm-.016.033c.002-.004.012-.023.02-.044l-.463-.186.003-.01-.002.006.442.234zm-.004.006l.004-.006-.442-.234-.009.017.447.223zm-.023.047c.018-.03.028-.058.032-.066l-.465-.185-.002.005.006-.011.429.257zm-.017.038c.009-.017.022-.042.033-.07l-.461-.192-.017.034.445.228zm-.008.015l.008-.015-.445-.228-.01.02.447.223zm-.03.053l.015-.026-.416-.277c-.014.02-.026.043-.033.055l.434.248zm.006-.013l-.447-.223.447.223zm-.053.075c.026-.025.04-.05.044-.056l.01-.018-.448-.224.004-.007.01-.016c.005-.007.014-.019.027-.032l.353.353zm-.174-.426h-.002v.5h.002v-.5zm-1.755 3.493l1.966-3.11-.423-.267-1.966 3.11.423.267zm1.998 2.893l-1.998-3.16-.423.267 1.998 3.16.423-.267zm-.461.132v.002h.5v-.002h-.5zm2.242.244c-.6.38-1.393.207-1.784-.383l-.417.277c.541.815 1.637 1.054 2.468.529l-.267-.423zm.417-1.774c.365.607.181 1.396-.417 1.774l.267.423c.83-.525 1.082-1.617.579-2.454l-.429.257zm.217-.378h-.002v.5h.002v-.5zm-2.654-3.477l2.442 3.86.423-.267-2.442-3.86-.423.267z"/>
        <path fill="#123456" fill-rule="evenodd" d="M38.281 16.48c-1.246 0-2.258-1.014-2.258-2.26 0-1.244 1.012-2.258 2.258-2.258s2.26 1.014 2.26 2.258c0 1.246-1.014 2.26-2.26 2.26zm5.184-7.346c-.3-.334-.706-.5-1.22-.5-.51 0-.912.166-1.206.5-.036.04-.068.082-.1.124-.792-.426-1.698-.668-2.658-.668-3.104 0-5.63 2.526-5.63 5.63 0 3.106 2.526 5.632 5.63 5.632.966 0 1.876-.246 2.67-.676.03.042.062.08.094.12.296.34.698.51 1.2.51.52 0 .93-.168 1.222-.504.298-.336.444-.754.444-1.258v-7.668c0-.496-.15-.91-.446-1.242z" clip-rule="evenodd"/>
        <path fill="#fff" d="M41.04 9.134l.371.335.004-.004-.376-.33zm-.1.124l-.237.44.375.203.26-.34-.399-.303zm.011 9.918l.407-.29-.256-.36-.389.21.238.44zm.094.12l-.39.313.006.008.007.008.377-.329zm2.422.006l-.374-.331-.003.003.377.328zm-5.186-3.322c-.969 0-1.758-.79-1.758-1.76h-1c0 1.522 1.236 2.76 2.758 2.76v-1zm-1.758-1.76c0-.968.789-1.758 1.758-1.758v-1c-1.522 0-2.758 1.238-2.758 2.758h1zm1.758-1.758c.97 0 1.76.79 1.76 1.758h1c0-1.52-1.238-2.758-2.76-2.758v1zm1.76 1.758c0 .97-.79 1.76-1.76 1.76v1c1.523 0 2.76-1.238 2.76-2.76h-1zm3.796-5.42c-.409-.456-.959-.666-1.592-.666v1c.396 0 .658.122.848.334l.744-.668zm-1.592-.666c-.63 0-1.177.211-1.58.67l.75.66c.184-.209.44-.33.83-.33v-1zm-1.577.666c-.052.057-.096.116-.126.155l.795.606c.034-.044.054-.07.074-.092l-.743-.67zm.508.018c-.863-.464-1.85-.728-2.895-.728v1c.876 0 1.7.22 2.422.609l.473-.881zm-2.895-.728c-3.38 0-6.13 2.75-6.13 6.13h1c0-2.828 2.302-5.13 5.13-5.13v-1zm-6.13 6.13c0 3.382 2.75 6.132 6.13 6.132v-1c-2.827 0-5.13-2.302-5.13-5.132h-1zm6.13 6.132c1.052 0 2.044-.268 2.909-.736l-.477-.88c-.723.392-1.551.616-2.432.616v1zm2.264-.885c.04.057.088.114.11.142l.78-.625-.077-.098-.813.58zm.123.158c.403.462.95.681 1.577.681v-1c-.376 0-.633-.121-.822-.338l-.755.657zm1.577.681c.637 0 1.196-.21 1.6-.676l-.755-.656c-.18.207-.441.332-.845.332v1zm1.597-.672c.39-.44.57-.981.57-1.59h-1c0 .4-.113.694-.319.927l.748.663zm.57-1.59v-7.668h-1v7.668h1zm0-7.668c0-.605-.187-1.141-.573-1.574l-.747.665c.206.23.32.522.32.91h1z"/>
        <path fill="#123456" fill-rule="evenodd" d="M57.431 16.445c-1.246 0-2.258-1.014-2.258-2.26 0-1.244 1.012-2.258 2.258-2.258s2.26 1.014 2.26 2.258c0 1.246-1.014 2.26-2.26 2.26zm5.184-7.348c-.3-.332-.706-.498-1.22-.498-.51 0-.912.166-1.206.498-.036.042-.07.084-.1.126-.792-.426-1.698-.668-2.658-.668-3.104 0-5.63 2.526-5.63 5.63s2.526 5.632 5.63 5.632c.966 0 1.874-.246 2.67-.676.03.04.062.08.094.118.296.342.696.512 1.2.512.52 0 .93-.168 1.222-.504.298-.336.444-.754.444-1.258v-7.67c0-.494-.15-.91-.446-1.242z" clip-rule="evenodd"/>
        <path fill="#fff" d="M60.189 9.097l-.374-.331-.006.006.38.325zm-.1.126l-.237.44.388.209.256-.358-.407-.291zm.012 9.918l.4-.3-.258-.345-.38.205.238.44zm.094.118l-.383.322.005.005.378-.327zm2.422.008l-.374-.332-.003.004.377.328zm-5.186-3.322c-.97 0-1.758-.79-1.758-1.76h-1c0 1.522 1.235 2.76 2.758 2.76v-1zm-1.758-1.76c0-.968.788-1.758 1.758-1.758v-1c-1.522 0-2.758 1.238-2.758 2.758h1zm1.758-1.758c.97 0 1.76.79 1.76 1.758h1c0-1.52-1.238-2.758-2.76-2.758v1zm1.76 1.758c0 .97-.79 1.76-1.76 1.76v1c1.522 0 2.76-1.238 2.76-2.76h-1zm3.795-5.423c-.41-.453-.958-.663-1.591-.663v1c.395 0 .658.122.849.333l.742-.67zm-1.591-.663c-.63 0-1.177.21-1.58.667l.748.663c.185-.209.441-.33.832-.33v-1zm-1.586.673c-.041.048-.085.102-.127.16l.814.582c.018-.026.042-.056.073-.092l-.76-.65zm.517.01c-.863-.463-1.85-.727-2.895-.727v1c.875 0 1.7.22 2.421.608l.474-.88zm-2.895-.727c-3.38 0-6.13 2.75-6.13 6.13h1c0-2.828 2.302-5.13 5.13-5.13v-1zm-6.13 6.13c0 3.38 2.75 6.132 6.13 6.132v-1c-2.828 0-5.13-2.304-5.13-5.132h-1zm6.13 6.132c1.052 0 2.041-.268 2.908-.736l-.476-.88c-.725.392-1.552.616-2.432.616v1zm2.27-.876c.036.048.074.096.111.14l.766-.644c-.027-.032-.053-.064-.077-.096l-.8.6zm.116.145c.403.466.948.685 1.578.685v-1c-.378 0-.633-.12-.822-.34l-.756.655zm1.578.685c.636 0 1.195-.211 1.6-.676l-.755-.656c-.18.207-.442.332-.845.332v1zm1.596-.672c.39-.44.57-.982.57-1.59h-1c0 .4-.112.694-.318.926l.748.664zm.57-1.59v-7.67h-1v7.67h1zm0-7.67c0-.603-.186-1.141-.573-1.575l-.746.666c.205.23.319.524.319.909h1z"/>
        <path fill="#123456" fill-rule="evenodd" d="M50.598 8.579c-.016 0-.034.004-.05.004h-.036c-.964 0-1.872.242-2.668.668-.034-.048-.07-.092-.11-.136-.302-.332-.716-.498-1.232-.498-.518 0-.924.166-1.22.498-.298.332-.446.746-.446 1.24v7.658c0 .49.152.906.452 1.248.298.34.704.51 1.214.51.524 0 .938-.168 1.234-.502.3-.338.45-.754.45-1.256v-3.88c.066-1.226 1.084-2.204 2.326-2.204h.052c.012 0 .024.004.034.004.926 0 1.678-.75 1.678-1.678 0-.926-.752-1.676-1.678-1.676z" clip-rule="evenodd"/>
        <path stroke="#fff" d="M50.598 8.579c-.016 0-.034.004-.05.004h-.036c-.964 0-1.872.242-2.668.668-.034-.048-.07-.092-.11-.136-.302-.332-.716-.498-1.232-.498-.518 0-.924.166-1.22.498-.298.332-.446.746-.446 1.24v7.658c0 .49.152.906.452 1.248.298.34.704.51 1.214.51.524 0 .938-.168 1.234-.502.3-.338.45-.754.45-1.256v-3.88c.066-1.226 1.084-2.204 2.326-2.204h.052c.012 0 .024.004.034.004.926 0 1.678-.75 1.678-1.678 0-.926-.752-1.676-1.678-1.676"/>
        <mask id="at37jtg1oa" width="12" height="16" x="21" y="4" maskUnits="userSpaceOnUse">
            <path fill="#fff" fill-rule="evenodd" d="M21.67 4.25h11.172V19.85H21.67V4.249z" clip-rule="evenodd"/>
        </mask>
        <g mask="url(#at37jtg1oa)">
            <path fill="#123456" fill-rule="evenodd" d="M31.184 16.529h-.018v-.012c-.974 0-1.808-.6-2.156-1.446 0 0-.126.136-.17-3.168h2.24c.492 0 .91-.15 1.252-.446.34-.296.51-.696.51-1.2 0-.52-.168-.93-.504-1.222-.336-.298-.754-.444-1.258-.444h-2.238V6.029c0-.508-.148-.93-.448-1.27-.294-.338-.71-.51-1.234-.51-.508 0-.912.174-1.212.518-.298.344-.448.764-.448 1.262v2.562h-2.088c-.496 0-.91.148-1.244.446-.332.3-.498.706-.498 1.22 0 .51.166.912.498 1.206.334.294.748.44 1.244.44H25.5v2.292h-.004c0 3.12 2.544 5.656 5.67 5.656v-.008h.018c.914 0 1.658-.744 1.658-1.658 0-.912-.744-1.656-1.658-1.656z" clip-rule="evenodd"/>
            <path stroke="#fff" d="M31.184 16.529h-.018v-.012c-.974 0-1.808-.6-2.156-1.446 0 0-.126.136-.17-3.168h2.24c.492 0 .91-.15 1.252-.446.34-.296.51-.696.51-1.2 0-.52-.168-.93-.504-1.222-.336-.298-.754-.444-1.258-.444h-2.238V6.029c0-.508-.148-.93-.448-1.27-.294-.338-.71-.51-1.234-.51-.508 0-.912.174-1.212.518-.298.344-.448.764-.448 1.262v2.562h-2.088c-.496 0-.91.148-1.244.446-.332.3-.498.706-.498 1.22 0 .51.166.912.498 1.206.334.294.748.44 1.244.44H25.5v2.292h-.004c0 3.12 2.544 5.656 5.67 5.656v-.008h.018c.914 0 1.658-.744 1.658-1.658 0-.912-.744-1.656-1.658-1.656"/>
        </g>
    </g>
</svg>
