<svg xmlns="http://www.w3.org/2000/svg" width="17" height="16" fill="none" viewBox="0 0 17 16">
    <path fill="#889AAC" fill-rule="evenodd" d="M8.75 1.333c.342 0 .624.258.662.59L9.417 2v6.087l.963-.642c.307-.204.72-.121.925.185.19.285.132.662-.123.878l-.062.047-1.993 1.328C9.02 9.957 8.89 10 8.75 10s-.27-.043-.377-.117L6.38 8.555c-.306-.205-.389-.618-.185-.925.19-.284.56-.376.858-.224l.067.04.963.641V2c0-.368.299-.667.667-.667zm3.333 3.334c1.415 0 2.591 1.037 2.663 2.37l.004.13v3.666c0 1.351-1.132 2.43-2.53 2.497l-.137.003H5.417c-1.415 0-2.591-1.037-2.663-2.37l-.004-.13V7.167c0-1.395 1.206-2.5 2.667-2.5.368 0 .666.298.666.666 0 .369-.298.667-.666.667-.713 0-1.278.486-1.33 1.077l-.004.09v3.666c0 .601.53 1.116 1.228 1.163l.106.004h6.666c.713 0 1.278-.486 1.33-1.077l.004-.09V7.167c0-.631-.585-1.167-1.334-1.167-.368 0-.666-.298-.666-.667 0-.368.298-.666.666-.666z" clip-rule="evenodd"/>
</svg>
