<svg xmlns="http://www.w3.org/2000/svg" width="17" height="16" fill="none" viewBox="0 0 17 16">
    <path fill="#123456" fill-rule="evenodd" d="M15.416 4.063c0-.078-.025-.152-.065-.212V3.85l-.002-.001-1.56-2.342c-.073-.108-.195-.174-.325-.174H4.035c-.13 0-.252.066-.325.174L2.151 3.85c-.044.064-.068.142-.068.219v10.208c0 .216.175.39.39.39h12.553c.216 0 .39-.174.39-.39V4.068v-.005zm-4.713-1.948h2.551l1.042 1.562h-3.593V2.115zm-3.125 0h2.344v1.562H7.578V2.115zm0 2.343h2.344v2.129l-.997-.499c-.11-.055-.24-.055-.35 0l-.997.499V4.458zM4.245 2.115h2.552v1.562H3.204l1.041-1.562zm10.39 11.77H2.865V4.458h3.932v2.76c0 .136.07.262.185.333.115.071.259.078.38.017l1.388-.694 1.388.694c.121.06.265.054.38-.017.115-.071.185-.197.185-.332v-2.76h3.932v9.426z" clip-rule="evenodd"/>
</svg>
