<svg xmlns="http://www.w3.org/2000/svg" width="17" height="16" fill="none" viewBox="0 0 17 16">
    <path fill="#889AAC" fill-rule="evenodd" d="M15.486 8.297l-.862-1.092h.001L13.24 4.493c-.079-.154-.239-.25-.413-.25h-1.972v-.455c0-.251-.207-.455-.462-.455H2.688c-.255 0-.462.204-.462.455 0 .25.207.454.462.454H9.93v3.182c0 .251.207.455.463.455h3.594l.673.852v2.345h-.871c-.2-.791-.929-1.38-1.794-1.38-.866 0-1.594.589-1.794 1.38H7.47c-.2-.791-.928-1.38-1.794-1.38-.865 0-1.594.589-1.794 1.38H2.688c-.255 0-.462.203-.462.454s.207.455.462.455h1.203c.211.776.932 1.348 1.786 1.348.855 0 1.575-.572 1.786-1.348h2.745c.21.776.931 1.348 1.786 1.348.854 0 1.575-.572 1.786-1.348h1.341c.255 0 .462-.204.462-.455V8.576c0-.101-.034-.2-.097-.279zm-2.945-3.145l.93 1.818h-2.617V5.152h1.687zm-7.788 6.363c0 .502.414.91.924.91s.925-.409.925-.91c0-.501-.415-.909-.925-.909s-.924.408-.924.91zm6.316 0c0 .502.415.91.925.91s.924-.409.924-.91c0-.501-.414-.909-.924-.909s-.925.408-.925.91zM2.134 8.773H4.26c.255 0 .462.203.462.454s-.207.455-.462.455H2.134c-.255 0-.462-.204-.462-.455 0-.25.207-.454.462-.454zm3.189-1.788H1.379c-.255 0-.462.203-.462.454s.207.455.462.455h3.944c.255 0 .462-.204.462-.455 0-.25-.207-.454-.462-.454zm-3.19-1.788h3.945c.255 0 .462.203.462.454 0 .252-.207.455-.462.455H2.134c-.255 0-.462-.203-.462-.455 0-.25.207-.454.462-.454z" clip-rule="evenodd"/>
</svg>
